<svg width="26" height="26" viewBox="0 0 26 26" fill="none" xmlns="http://www.w3.org/2000/svg">
<g id="email">
<path id="Vector" fill-rule="evenodd" clip-rule="evenodd" d="M10.8812 2.84375H15.1187C16.5469 2.84375 17.6677 2.84375 18.5677 2.91667C19.4844 2.99271 20.2416 3.14688 20.9271 3.49688C22.0542 4.07113 22.9705 4.98748 23.5448 6.11458C23.8948 6.8 24.05 7.55729 24.1239 8.47396C24.1979 9.37396 24.1979 10.4948 24.1979 11.9229V14.0771C24.1979 15.5052 24.1979 16.626 24.125 17.526C24.05 18.4427 23.8948 19.2 23.5448 19.8854C22.9705 21.0125 22.0542 21.9289 20.9271 22.5031C20.2416 22.8531 19.4844 23.0083 18.5677 23.0823C17.6677 23.1562 16.5469 23.1562 15.1187 23.1562H10.8812C9.4531 23.1562 8.33227 23.1562 7.43227 23.0833C6.5156 23.0083 5.75831 22.8531 5.0729 22.5031C3.9458 21.9289 3.02944 21.0125 2.45519 19.8854C2.10519 19.2 1.95102 18.4427 1.87602 17.526C1.80206 16.626 1.80206 15.5052 1.80206 14.0771V11.9229C1.80206 10.4948 1.80206 9.37396 1.87498 8.47396C1.95102 7.55729 2.10519 6.8 2.45519 6.11458C3.02944 4.98748 3.9458 4.07113 5.0729 3.49688C5.75831 3.14688 6.5156 2.99271 7.43227 2.91771C8.33227 2.84375 9.4531 2.84375 10.8812 2.84375ZM7.18331 8.18333C7.01091 8.07111 6.80119 8.03142 6.5997 8.07287C6.39821 8.11433 6.2212 8.23358 6.10709 8.40474C5.99298 8.5759 5.95098 8.78516 5.99022 8.9871C6.02945 9.18904 6.14675 9.36735 6.31665 9.48333L7.35831 10.1781L7.47915 10.2583C9.0406 11.3 9.96873 11.9187 10.9719 12.2208C12.2946 12.6193 13.7054 12.6193 15.0281 12.2208C16.0312 11.9187 16.9594 11.299 18.5208 10.2583L18.6416 10.1781L19.6833 9.48333C19.7699 9.42697 19.8445 9.35399 19.9026 9.26862C19.9608 9.18326 20.0015 9.08719 20.0224 8.98599C20.0432 8.88479 20.0437 8.78047 20.0239 8.67906C20.0042 8.57765 19.9645 8.48117 19.9072 8.39521C19.8499 8.30924 19.7761 8.2355 19.6901 8.17824C19.6041 8.12099 19.5075 8.08136 19.4061 8.06166C19.3047 8.04195 19.2004 8.04256 19.0992 8.06345C18.998 8.08433 18.902 8.12508 18.8166 8.18333L17.775 8.87813C16.0562 10.024 15.3302 10.4979 14.5771 10.725C13.5485 11.0348 12.4515 11.0348 11.4229 10.725C10.6698 10.4979 9.94373 10.024 8.22498 8.87813L7.18331 8.18333Z" fill="white"/>
</g>
</svg>
