<svg width="26" height="26" viewBox="0 0 26 26" fill="none" xmlns="http://www.w3.org/2000/svg">
<g clip-path="url(#clip0_66_22)">
<path d="M25.5 13.0767C25.5 6.12979 19.9031 0.498535 13 0.498535C6.09376 0.500098 0.496887 6.12979 0.496887 13.0782C0.496887 19.3548 5.06876 24.5579 11.0438 25.5017V16.7126H7.87189V13.0782H11.0469V10.3048C11.0469 7.15322 12.9141 5.4126 15.7688 5.4126C17.1375 5.4126 18.5672 5.65791 18.5672 5.65791V8.75166H16.9906C15.4391 8.75166 14.9547 9.72197 14.9547 10.7173V13.0767H18.4203L17.8672 16.711H14.9531V25.5001C20.9281 24.5563 25.5 19.3532 25.5 13.0767Z" fill="white"/>
</g>
<defs>
<clipPath id="clip0_66_22">
<rect x="0.5" y="0.5" width="25" height="25" fill="white"/>
</clipPath>
</defs>
</svg>
