<svg width="26" height="26" viewBox="0 0 26 26" fill="none" xmlns="http://www.w3.org/2000/svg">
<path fill-rule="evenodd" clip-rule="evenodd" d="M8.28123 11.9417L6.45102 14.1146C7.7655 16.2002 9.50902 17.9821 11.5656 19.3416L14.1594 17.4L14.25 17.3323C15.0958 16.6989 15.6406 16.2906 16.2583 16.0458C16.8045 15.8302 17.3847 15.7134 17.9719 15.701C18.6354 15.6864 19.2958 15.8521 20.3219 16.1083L20.4302 16.1354L21.1677 16.3198L21.2937 16.351C21.9885 16.5239 22.5312 16.6594 22.9635 16.9594C23.4417 17.2906 23.8073 17.7594 24.0125 18.3031C24.1979 18.7948 24.1979 19.3437 24.1969 20.0427V20.1989C24.1969 20.701 24.1969 21.125 24.1666 21.4771C24.1354 21.85 24.0666 22.1979 23.8979 22.5375C23.5541 23.1962 22.9791 23.7048 22.2833 23.9656C21.6479 24.1896 21.0187 24.1114 20.2375 24.0156L20.1104 24C16.7635 23.5896 13.7562 22.5479 11.1885 20.9552C8.56701 19.3332 6.38059 17.0963 4.81873 14.4385C3.35311 11.9542 2.39061 9.07498 1.99998 5.88748L1.98436 5.76248C1.88748 4.98019 1.80936 4.35207 2.03436 3.71457C2.29522 3.01881 2.80378 2.44385 3.46248 2.09998C3.79998 1.93332 4.14478 1.86353 4.51457 1.83228C4.86144 1.80103 5.27811 1.80103 5.76873 1.80103H5.93019C6.64582 1.80103 7.20519 1.80103 7.69686 1.98644C8.24123 2.19145 8.71029 2.55732 9.04165 3.0354C9.34165 3.46769 9.47602 4.0104 9.64894 4.70519L9.68019 4.83019L9.80832 5.34061L9.83748 5.45727C10.1125 6.55519 10.2885 7.26248 10.2614 7.96873C10.2374 8.59324 10.0954 9.20754 9.84269 9.77915C9.55727 10.426 9.08748 10.9833 8.35936 11.85L8.28123 11.9417Z" fill="white"/>
</svg>
