<svg width="388" height="500" viewBox="0 0 388 500" fill="none" xmlns="http://www.w3.org/2000/svg">
<path d="M387.722 0H0V500H387.722V0Z" fill="white"/>
<path d="M387.722 0H0V183.091H387.722V0Z" fill="#D7CAF7"/>
<path d="M118.201 44.965H18.8476C15.8735 44.965 13.4626 47.3759 13.4626 50.35V161.282C13.4626 164.256 15.8735 166.667 18.8476 166.667H118.201C121.175 166.667 123.586 164.256 123.586 161.282V50.35C123.586 47.3759 121.175 44.965 118.201 44.965Z" fill="#EAE6F5"/>
<g opacity="0.29">
<path opacity="0.4" d="M79.6311 111.223L76.1195 103.011C75.4801 101.508 74.5267 100.655 73.4383 100.599C72.3613 100.543 71.318 101.294 70.5215 102.731L68.3899 106.556C67.941 107.364 67.3016 107.846 66.6061 107.902C65.8993 107.97 65.1925 107.6 64.6204 106.87L64.3734 106.556C63.577 105.558 62.5897 105.075 61.58 105.176C60.5703 105.277 59.7065 105.973 59.1344 107.106L57.1936 110.976C56.4978 112.379 56.5652 114.006 57.3842 115.329C58.2033 116.653 59.6279 117.45 61.1874 117.45H75.5027C77.0059 117.45 78.4082 116.698 79.2386 115.441C80.091 114.185 80.2256 112.603 79.6311 111.223Z" fill="#0B0220"/>
<path d="M62.7469 101.755C64.8412 101.755 66.5388 100.057 66.5388 97.9625C66.5388 95.8683 64.8412 94.1707 62.7469 94.1707C60.6527 94.1707 58.9548 95.8683 58.9548 97.9625C58.9548 100.057 60.6527 101.755 62.7469 101.755Z" fill="#0B0220"/>
</g>
<path d="M298.869 56.2736H168.282C167.539 56.2736 166.936 56.8763 166.936 57.6198V105.277C166.936 106.021 167.539 106.624 168.282 106.624H298.869C299.613 106.624 300.215 106.021 300.215 105.277V57.6198C300.215 56.8763 299.613 56.2736 298.869 56.2736Z" fill="#EAE6F5"/>
<path d="M284.06 141.357H168.282C167.539 141.357 166.936 141.96 166.936 142.703V152.127C166.936 152.871 167.539 153.473 168.282 153.473H284.06C284.804 153.473 285.407 152.871 285.407 152.127V142.703C285.407 141.96 284.804 141.357 284.06 141.357Z" fill="#EAE6F5"/>
<path d="M231.018 112.278H168.282C167.539 112.278 166.936 112.881 166.936 113.624V131.395C166.936 132.138 167.539 132.741 168.282 132.741H231.018C231.761 132.741 232.364 132.138 232.364 131.395V113.624C232.364 112.881 231.761 112.278 231.018 112.278Z" fill="#EAE6F5"/>
<path d="M372.375 56.2736H312.332C311.588 56.2736 310.985 56.8763 310.985 57.6198V83.468C310.985 84.2115 311.588 84.8142 312.332 84.8142H372.375C373.118 84.8142 373.721 84.2115 373.721 83.468V57.6198C373.721 56.8763 373.118 56.2736 372.375 56.2736Z" fill="#EAE6F5"/>
<path d="M365.105 91.5455H312.332C311.588 91.5455 310.985 92.1483 310.985 92.8918V118.74C310.985 119.483 311.588 120.086 312.332 120.086H365.105C365.849 120.086 366.451 119.483 366.451 118.74V92.8918C366.451 92.1483 365.849 91.5455 365.105 91.5455Z" fill="#EAE6F5"/>
<path d="M365.105 126.817H312.332C311.588 126.817 310.985 127.42 310.985 128.164V154.012C310.985 154.755 311.588 155.358 312.332 155.358H365.105C365.849 155.358 366.451 154.755 366.451 154.012V128.164C366.451 127.42 365.849 126.817 365.105 126.817Z" fill="#EAE6F5"/>
<path d="M35.0027 10.77H13.4626V32.3101H35.0027V10.77Z" fill="#EAE6F5"/>
<mask id="mask0_411_103" style="mask-type:luminance" maskUnits="userSpaceOnUse" x="166" y="11" width="209" height="21">
<path d="M374.26 11.4432H166.936V31.6371H374.26V11.4432Z" fill="white"/>
</mask>
<g mask="url(#mask0_411_103)">
<path d="M192.515 12.251H168.282C167.539 12.251 166.936 12.8537 166.936 13.5972V29.4831C166.936 30.2266 167.539 30.8293 168.282 30.8293H192.515C193.258 30.8293 193.861 30.2266 193.861 29.4831V13.5972C193.861 12.8537 193.258 12.251 192.515 12.251Z" fill="#EAE6F5"/>
<path d="M230.21 12.251H205.977C205.234 12.251 204.631 12.8537 204.631 13.5972V29.4831C204.631 30.2266 205.234 30.8293 205.977 30.8293H230.21C230.954 30.8293 231.556 30.2266 231.556 29.4831V13.5972C231.556 12.8537 230.954 12.251 230.21 12.251Z" fill="#EAE6F5"/>
<path d="M267.905 12.251H243.673C242.929 12.251 242.326 12.8537 242.326 13.5972V29.4831C242.326 30.2266 242.929 30.8293 243.673 30.8293H267.905C268.649 30.8293 269.251 30.2266 269.251 29.4831V13.5972C269.251 12.8537 268.649 12.251 267.905 12.251Z" fill="#EAE6F5"/>
<path d="M305.6 12.251H281.368C280.624 12.251 280.022 12.8537 280.022 13.5972V29.4831C280.022 30.2266 280.624 30.8293 281.368 30.8293H305.6C306.344 30.8293 306.947 30.2266 306.947 29.4831V13.5972C306.947 12.8537 306.344 12.251 305.6 12.251Z" fill="#EAE6F5"/>
<path d="M370.221 11.4432H321.756C319.525 11.4432 317.717 13.2515 317.717 15.482V27.5983C317.717 29.8289 319.525 31.6371 321.756 31.6371H370.221C372.451 31.6371 374.26 29.8289 374.26 27.5983V15.482C374.26 13.2515 372.451 11.4432 370.221 11.4432Z" fill="white"/>
</g>
<path d="M189.553 204.631H50.0808C47.1067 204.631 44.6957 207.042 44.6957 210.016V308.831C44.6957 311.805 47.1067 314.216 50.0808 314.216H189.553C192.527 314.216 194.938 311.805 194.938 308.831V210.016C194.938 207.042 192.527 204.631 189.553 204.631Z" fill="#EAE6F5"/>
<g opacity="0.29">
<path opacity="0.4" d="M131.058 264.966L127.547 256.754C126.907 255.25 125.954 254.398 124.865 254.342C123.788 254.286 122.745 255.037 121.949 256.473L119.817 260.299C119.368 261.107 118.729 261.589 118.033 261.645C117.326 261.712 116.62 261.342 116.047 260.613L115.8 260.299C115.004 259.3 114.017 258.818 113.007 258.919C111.997 259.02 111.134 259.715 110.561 260.849L108.621 264.719C107.925 266.121 107.992 267.748 108.811 269.072C109.63 270.396 111.055 271.193 112.614 271.193H126.93C128.433 271.193 129.835 270.442 130.666 269.184C131.518 267.928 131.653 266.346 131.058 264.966Z" fill="#0B0220"/>
<path d="M114.174 255.497C116.268 255.497 117.966 253.799 117.966 251.705C117.966 249.611 116.268 247.913 114.174 247.913C112.08 247.913 110.382 249.611 110.382 251.705C110.382 253.799 112.08 255.497 114.174 255.497Z" fill="#0B0220"/>
</g>
<path d="M343.026 222.402H205.708V242.596H343.026V222.402Z" fill="#EAE6F5"/>
<path d="M306.677 249.327H205.708V269.521H306.677V249.327Z" fill="#EAE6F5"/>
<path d="M302.639 276.252H209.747C207.516 276.252 205.708 278.06 205.708 280.291V292.407C205.708 294.638 207.516 296.446 209.747 296.446H302.639C304.869 296.446 306.677 294.638 306.677 292.407V280.291C306.677 278.06 304.869 276.252 302.639 276.252Z" fill="#4A0DDA"/>
<mask id="mask1_411_103" style="mask-type:luminance" maskUnits="userSpaceOnUse" x="13" y="335" width="362" height="151">
<path d="M374.26 335.757H13.4626V485.191H374.26V335.757Z" fill="white"/>
</mask>
<g mask="url(#mask1_411_103)">
<path d="M121.163 350.565H18.8476C15.8735 350.565 13.4626 352.976 13.4626 355.95V452.881C13.4626 455.855 15.8735 458.266 18.8476 458.266H121.163C124.137 458.266 126.548 455.855 126.548 452.881V355.95C126.548 352.976 124.137 350.565 121.163 350.565Z" fill="#EAE6F5"/>
<g opacity="0.29">
<path opacity="0.4" d="M81.2466 409.822L77.7351 401.61C77.0956 400.108 76.1422 399.254 75.0538 399.2C73.9768 399.144 72.9335 399.895 72.137 401.33L70.0054 405.156C69.5565 405.964 68.9171 406.446 68.2216 406.502C67.5148 406.57 66.808 406.201 66.2359 405.471L65.989 405.156C65.1925 404.157 64.2052 403.675 63.1955 403.778C62.1858 403.877 61.322 404.572 60.7499 405.705L58.8091 409.577C58.1134 410.98 58.1807 412.606 58.9997 413.928C59.8188 415.253 61.2434 416.05 62.8029 416.05H77.1182C78.6214 416.05 80.0237 415.299 80.8541 414.042C81.7065 412.784 81.8411 411.204 81.2466 409.822Z" fill="#0B0220"/>
<path d="M64.3624 400.355C66.4567 400.355 68.1543 398.656 68.1543 396.562C68.1543 394.47 66.4567 392.771 64.3624 392.771C62.2682 392.771 60.5703 394.47 60.5703 396.562C60.5703 398.656 62.2682 400.355 64.3624 400.355Z" fill="#0B0220"/>
</g>
<path d="M245.019 350.565H142.703C139.729 350.565 137.318 352.976 137.318 355.95V452.881C137.318 455.855 139.729 458.266 142.703 458.266H245.019C247.993 458.266 250.404 455.855 250.404 452.881V355.95C250.404 352.976 247.993 350.565 245.019 350.565Z" fill="#EAE6F5"/>
<g opacity="0.29">
<path opacity="0.4" d="M205.102 409.822L201.591 401.61C200.951 400.108 199.998 399.254 198.91 399.2C197.833 399.144 196.789 399.895 195.993 401.33L193.861 405.156C193.412 405.964 192.773 406.446 192.077 406.502C191.37 406.57 190.664 406.201 190.092 405.471L189.845 405.156C189.048 404.157 188.061 403.675 187.051 403.778C186.041 403.877 185.178 404.572 184.606 405.705L182.665 409.577C181.969 410.98 182.036 412.606 182.855 413.928C183.674 415.253 185.099 416.05 186.659 416.05H200.974C202.477 416.05 203.879 415.299 204.71 414.042C205.562 412.784 205.697 411.204 205.102 409.822Z" fill="#0B0220"/>
<path d="M188.218 400.355C190.312 400.355 192.01 398.656 192.01 396.562C192.01 394.47 190.312 392.771 188.218 392.771C186.124 392.771 184.426 394.47 184.426 396.562C184.426 398.656 186.124 400.355 188.218 400.355Z" fill="#0B0220"/>
</g>
<path d="M368.875 350.565H266.559C263.585 350.565 261.174 352.976 261.174 355.95V452.881C261.174 455.855 263.585 458.266 266.559 458.266H368.875C371.849 458.266 374.26 455.855 374.26 452.881V355.95C374.26 352.976 371.849 350.565 368.875 350.565Z" fill="#EAE6F5"/>
<g opacity="0.29">
<path opacity="0.4" d="M328.958 409.822L325.447 401.61C324.806 400.108 323.853 399.254 322.765 399.2C321.688 399.144 320.644 399.895 319.849 401.33L317.717 405.156C317.267 405.964 316.629 406.446 315.932 406.502C315.226 406.57 314.518 406.201 313.947 405.471L313.7 405.156C312.903 404.157 311.917 403.675 310.907 403.778C309.898 403.877 309.033 404.572 308.46 405.705L306.521 409.577C305.824 410.98 305.891 412.606 306.71 413.928C307.531 415.253 308.955 416.05 310.514 416.05H324.83C326.333 416.05 327.736 415.299 328.565 414.042C329.418 412.784 329.553 411.204 328.958 409.822Z" fill="#0B0220"/>
<path d="M312.073 400.355C314.168 400.355 315.867 398.656 315.867 396.562C315.867 394.47 314.168 392.771 312.073 392.771C309.978 392.771 308.282 394.47 308.282 396.562C308.282 398.656 309.978 400.355 312.073 400.355Z" fill="#0B0220"/>
</g>
<path d="M216.747 464.997H170.975C168.744 464.997 166.936 466.806 166.936 469.036V481.152C166.936 483.383 168.744 485.191 170.975 485.191H216.747C218.978 485.191 220.786 483.383 220.786 481.152V469.036C220.786 466.806 218.978 464.997 216.747 464.997Z" fill="#4A0DDA"/>
</g>
</svg>
