<svg width="50" height="50" viewBox="0 0 50 50" fill="none" xmlns="http://www.w3.org/2000/svg">
<g id="vuesax/bulk/export">
<g id="export">
<path id="Vector" opacity="0.4" d="M25 50C38.8071 50 50 38.8071 50 25C50 11.1929 38.8071 0 25 0C11.1929 0 0 11.1929 0 25C0 38.8071 11.1929 50 25 50Z" fill="#4A0DDA"/>
<path id="Vector_2" d="M33.2045 14.4H23.8867C23.0958 14.4 22.4399 15.0559 22.4399 15.8468C22.4399 16.6378 23.0958 17.2937 23.8867 17.2937H29.7128L14.8198 32.1867C14.2603 32.7461 14.2603 33.6721 14.8198 34.2316C15.1091 34.5209 15.4757 34.656 15.8422 34.656C16.2087 34.656 16.5753 34.5209 16.8647 34.2316L31.7576 19.3386V25.1646C31.7576 25.9555 32.4136 26.6114 33.2045 26.6114C33.9954 26.6114 34.6514 25.9555 34.6514 25.1646V15.8468C34.6514 15.0559 33.9954 14.4 33.2045 14.4Z" fill="#4A0DDA"/>
</g>
</g>
</svg>
