<svg width="35" height="36" viewBox="0 0 35 36" fill="none" xmlns="http://www.w3.org/2000/svg">
<g id="vuesax/bulk/home-2">
<g id="home-2">
<path id="Vector" opacity="0.4" d="M29.225 10.4459L20.825 4.56877C18.5354 2.9646 15.0208 3.0521 12.8187 4.75835L5.5125 10.4604C4.05417 11.5979 2.90208 13.9313 2.90208 15.7688V25.8313C2.90208 29.55 5.92083 32.5834 9.63958 32.5834H25.3604C29.0792 32.5834 32.0979 29.5646 32.0979 25.8459V15.9584C32.0979 13.9896 30.8292 11.5688 29.225 10.4459Z" fill="#0B0220"/>
<path id="Vector_2" d="M17.5 27.8438C16.9021 27.8438 16.4062 27.3479 16.4062 26.75V22.375C16.4062 21.7771 16.9021 21.2812 17.5 21.2812C18.0979 21.2812 18.5938 21.7771 18.5938 22.375V26.75C18.5938 27.3479 18.0979 27.8438 17.5 27.8438Z" fill="#0B0220"/>
</g>
</g>
</svg>
