<svg width="112" height="400" viewBox="0 0 112 400" fill="none" xmlns="http://www.w3.org/2000/svg">
<g clip-path="url(#clip0_411_151)">
<path d="M111.69 0H0.722137V400H111.69V0Z" fill="white"/>
<path d="M111.69 0H0.722137V103.226H111.69V0Z" fill="#D7CAF7"/>
<path d="M107.303 32.7742H56.9802C56.6952 32.7742 56.4641 33.0052 56.4641 33.2903V47.7419C56.4641 48.027 56.6952 48.258 56.9802 48.258H107.303C107.588 48.258 107.819 48.027 107.819 47.7419V33.2903C107.819 33.0052 107.588 32.7742 107.303 32.7742Z" fill="#EAE6F5"/>
<path d="M83.0447 52.6451H56.7221C56.4371 52.6451 56.206 52.8762 56.206 53.1613V62.1935C56.206 62.4786 56.4371 62.7097 56.7221 62.7097H83.0447C83.3298 62.7097 83.5609 62.4786 83.5609 62.1935V53.1613C83.5609 52.8762 83.3298 52.6451 83.0447 52.6451Z" fill="#EAE6F5"/>
<path d="M98.5286 67.0968H56.7221C56.4371 67.0968 56.206 67.3279 56.206 67.6129V73.5484C56.206 73.8335 56.4371 74.0645 56.7221 74.0645H98.5286C98.8136 74.0645 99.0447 73.8335 99.0447 73.5484V67.6129C99.0447 67.3279 98.8136 67.0968 98.5286 67.0968Z" fill="#EAE6F5"/>
<mask id="mask0_411_151" style="mask-type:luminance" maskUnits="userSpaceOnUse" x="4" y="3" width="14" height="12">
<path d="M17.3717 3.87097H4.59311V14.1936H17.3717V3.87097Z" fill="white"/>
</mask>
<g mask="url(#mask0_411_151)">
<path d="M16.8555 3.87097H5.10923C4.82418 3.87097 4.59311 4.10205 4.59311 4.3871V13.6774C4.59311 13.9625 4.82418 14.1936 5.10923 14.1936H16.8555C17.1406 14.1936 17.3717 13.9625 17.3717 13.6774V4.3871C17.3717 4.10205 17.1406 3.87097 16.8555 3.87097Z" fill="#EAE6F5"/>
</g>
<mask id="mask1_411_151" style="mask-type:luminance" maskUnits="userSpaceOnUse" x="71" y="3" width="37" height="12">
<path d="M107.819 3.87097H71.1738V14.1936H107.819V3.87097Z" fill="white"/>
</mask>
<g mask="url(#mask1_411_151)">
<path d="M94.3996 3.87097H71.6899C71.4048 3.87097 71.1738 4.10205 71.1738 4.3871V13.6774C71.1738 13.9625 71.4048 14.1936 71.6899 14.1936H94.3996C94.6846 14.1936 94.9157 13.9625 94.9157 13.6774V4.3871C94.9157 4.10205 94.6846 3.87097 94.3996 3.87097Z" fill="#EAE6F5"/>
<path d="M107.303 3.87097H98.0125C97.7274 3.87097 97.4963 4.10205 97.4963 4.3871V13.6774C97.4963 13.9625 97.7274 14.1936 98.0125 14.1936H107.303C107.588 14.1936 107.819 13.9625 107.819 13.6774V4.3871C107.819 4.10205 107.588 3.87097 107.303 3.87097Z" fill="white"/>
</g>
<path d="M47.6899 26.5807H8.46407C6.3262 26.5807 4.59311 28.3138 4.59311 30.4517V80.7742C4.59311 82.9121 6.3262 84.6452 8.46407 84.6452H47.6899C49.8278 84.6452 51.5609 82.9121 51.5609 80.7742V30.4517C51.5609 28.3138 49.8278 26.5807 47.6899 26.5807Z" fill="#EAE6F5"/>
<g opacity="0.29">
<path opacity="0.4" d="M33.4641 58.2044L31.7812 54.2689C31.4749 53.5484 31.0179 53.1398 30.4963 53.113C29.9802 53.0859 29.4801 53.4462 29.0984 54.1344L28.077 55.9677C27.862 56.3548 27.5554 56.586 27.222 56.6129C26.8834 56.6451 26.5446 56.4678 26.2705 56.1182L26.1522 55.9677C25.7705 55.4893 25.2974 55.258 24.8135 55.3065C24.3296 55.3548 23.9157 55.6882 23.6415 56.2312L22.7114 58.0859C22.378 58.7582 22.4103 59.5375 22.8028 60.1721C23.1952 60.8064 23.878 61.1881 24.6254 61.1881H31.4855C32.206 61.1881 32.878 60.8278 33.2759 60.2258C33.6845 59.6237 33.749 58.8655 33.4641 58.2044Z" fill="#0B0220"/>
<path d="M25.3727 53.6665C26.3763 53.6665 27.19 52.8531 27.19 51.8495C27.19 50.8459 26.3763 50.0322 25.3727 50.0322C24.3691 50.0322 23.5555 50.8459 23.5555 51.8495C23.5555 52.8531 24.3691 53.6665 25.3727 53.6665Z" fill="#0B0220"/>
</g>
<mask id="mask2_411_151" style="mask-type:luminance" maskUnits="userSpaceOnUse" x="4" y="90" width="104" height="12">
<path d="M107.819 90.8387H4.59311V101.419H107.819V90.8387Z" fill="white"/>
</mask>
<g mask="url(#mask2_411_151)">
<path d="M36.7652 90.8387H5.10923C4.82418 90.8387 4.59311 91.0698 4.59311 91.3549V100.903C4.59311 101.188 4.82418 101.419 5.10923 101.419H36.7652C37.0503 101.419 37.2814 101.188 37.2814 100.903V91.3549C37.2814 91.0698 37.0503 90.8387 36.7652 90.8387Z" fill="#EAE6F5"/>
<path d="M72.0341 90.8387H40.3781C40.0931 90.8387 39.862 91.0698 39.862 91.3549V100.903C39.862 101.188 40.0931 101.419 40.3781 101.419H72.0341C72.3192 101.419 72.5503 101.188 72.5503 100.903V91.3549C72.5503 91.0698 72.3192 90.8387 72.0341 90.8387Z" fill="#EAE6F5"/>
<path d="M107.303 90.8387H75.6468C75.3617 90.8387 75.1307 91.0698 75.1307 91.3549V100.903C75.1307 101.188 75.3617 101.419 75.6468 101.419H107.303C107.588 101.419 107.819 101.188 107.819 100.903V91.3549C107.819 91.0698 107.588 90.8387 107.303 90.8387Z" fill="#EAE6F5"/>
</g>
<path d="M90.7867 108.387H21.6254C19.4875 108.387 17.7544 110.12 17.7544 112.258V152.774C17.7544 154.912 19.4875 156.645 21.6254 156.645H90.7867C92.9245 156.645 94.6576 154.912 94.6576 152.774V112.258C94.6576 110.12 92.9245 108.387 90.7867 108.387Z" fill="#EAE6F5"/>
<g opacity="0.29">
<path opacity="0.4" d="M61.5931 134.979L59.9103 131.043C59.604 130.323 59.1469 129.914 58.6254 129.887C58.1092 129.86 57.6094 130.22 57.2274 130.909L56.206 132.742C55.991 133.129 55.6845 133.36 55.3513 133.387C55.0125 133.419 54.6739 133.242 54.3996 132.892L54.2814 132.742C53.8997 132.263 53.4264 132.032 52.9425 132.081C52.4587 132.129 52.0447 132.462 51.7707 133.005L50.8403 134.86C50.5072 135.532 50.5394 136.312 50.9319 136.946C51.3242 137.581 52.007 137.962 52.7544 137.962H59.6145C60.335 137.962 61.007 137.602 61.405 137C61.8135 136.398 61.878 135.64 61.5931 134.979Z" fill="#0B0220"/>
<path d="M53.5018 130.441C54.5054 130.441 55.3188 129.627 55.3188 128.624C55.3188 127.62 54.5054 126.806 53.5018 126.806C52.4981 126.806 51.6845 127.62 51.6845 128.624C51.6845 129.627 52.4981 130.441 53.5018 130.441Z" fill="#0B0220"/>
</g>
<path d="M83.4318 161.807H19.1738C18.4611 161.807 17.8834 162.384 17.8834 163.097V169.548C17.8834 170.261 18.4611 170.839 19.1738 170.839H83.4318C84.1444 170.839 84.7221 170.261 84.7221 169.548V163.097C84.7221 162.384 84.1444 161.807 83.4318 161.807Z" fill="#EAE6F5"/>
<path d="M92.4641 174.71H19.1738C18.4611 174.71 17.8834 175.287 17.8834 176V192.774C17.8834 193.487 18.4611 194.065 19.1738 194.065H92.4641C93.1767 194.065 93.7544 193.487 93.7544 192.774V176C93.7544 175.287 93.1767 174.71 92.4641 174.71Z" fill="#EAE6F5"/>
<path d="M58.3996 197.935H20.4641C19.0388 197.935 17.8834 199.091 17.8834 200.516V205.677C17.8834 207.103 19.0388 208.258 20.4641 208.258H58.3996C59.8248 208.258 60.9802 207.103 60.9802 205.677V200.516C60.9802 199.091 59.8248 197.935 58.3996 197.935Z" fill="#4A0DDA"/>
<path d="M103.948 222.452H8.46407C6.3262 222.452 4.59311 224.185 4.59311 226.323V269.419C4.59311 271.557 6.3262 273.29 8.46407 273.29H103.948C106.086 273.29 107.819 271.557 107.819 269.419V226.323C107.819 224.185 106.086 222.452 103.948 222.452Z" fill="#EAE6F5"/>
<g opacity="0.29">
<path opacity="0.4" d="M61.5931 250.591L59.9103 246.656C59.604 245.935 59.1469 245.527 58.6254 245.5C58.1092 245.473 57.6094 245.833 57.2274 246.521L56.206 248.355C55.991 248.742 55.6845 248.973 55.3513 249C55.0125 249.032 54.6739 248.855 54.3996 248.505L54.2814 248.355C53.8997 247.876 53.4264 247.645 52.9425 247.693C52.4587 247.742 52.0447 248.075 51.7707 248.618L50.8403 250.473C50.5072 251.145 50.5394 251.925 50.9319 252.559C51.3242 253.193 52.007 253.575 52.7544 253.575H59.6145C60.335 253.575 61.007 253.215 61.405 252.613C61.8135 252.011 61.878 251.253 61.5931 250.591Z" fill="#0B0220"/>
<path d="M53.5018 246.054C54.5054 246.054 55.3188 245.24 55.3188 244.237C55.3188 243.233 54.5054 242.419 53.5018 242.419C52.4981 242.419 51.6845 243.233 51.6845 244.237C51.6845 245.24 52.4981 246.054 53.5018 246.054Z" fill="#0B0220"/>
</g>
<path d="M103.948 275.871H8.46407C6.3262 275.871 4.59311 277.604 4.59311 279.742V322.839C4.59311 324.977 6.3262 326.71 8.46407 326.71H103.948C106.086 326.71 107.819 324.977 107.819 322.839V279.742C107.819 277.604 106.086 275.871 103.948 275.871Z" fill="#EAE6F5"/>
<g opacity="0.29">
<path opacity="0.4" d="M61.5931 304.01L59.9103 300.075C59.604 299.355 59.1469 298.947 58.6254 298.919C58.1092 298.893 57.6094 299.252 57.2274 299.941L56.206 301.773C55.991 302.16 55.6845 302.392 55.3513 302.418C55.0125 302.452 54.6739 302.273 54.3996 301.925L54.2814 301.773C53.8997 301.295 53.4264 301.063 52.9425 301.112C52.4587 301.161 52.0447 301.494 51.7707 302.039L50.8403 303.892C50.5072 304.565 50.5394 305.344 50.9319 305.979C51.3242 306.612 52.007 306.993 52.7544 306.993H59.6145C60.335 306.993 61.007 306.635 61.405 306.031C61.8135 305.43 61.878 304.671 61.5931 304.01Z" fill="#0B0220"/>
<path d="M53.5018 299.474C54.5054 299.474 55.3188 298.661 55.3188 297.657C55.3188 296.653 54.5054 295.84 53.5018 295.84C52.4981 295.84 51.6845 296.653 51.6845 297.657C51.6845 298.661 52.4981 299.474 53.5018 299.474Z" fill="#0B0220"/>
</g>
<path d="M103.948 329.29H8.46407C6.3262 329.29 4.59311 331.023 4.59311 333.161V376.258C4.59311 378.396 6.3262 380.129 8.46407 380.129H103.948C106.086 380.129 107.819 378.396 107.819 376.258V333.161C107.819 331.023 106.086 329.29 103.948 329.29Z" fill="#EAE6F5"/>
<g opacity="0.29">
<path opacity="0.4" d="M61.5931 357.43L59.9103 353.494C59.604 352.774 59.1469 352.366 58.6254 352.338C58.1092 352.312 57.6094 352.671 57.2274 353.36L56.206 355.192C55.991 355.579 55.6845 355.812 55.3513 355.837C55.0125 355.871 54.6739 355.693 54.3996 355.345L54.2814 355.192C53.8997 354.715 53.4264 354.483 52.9425 354.532C52.4587 354.581 52.0447 354.914 51.7707 355.458L50.8403 357.311C50.5072 357.985 50.5394 358.764 50.9319 359.399C51.3242 360.031 52.007 360.413 52.7544 360.413H59.6145C60.335 360.413 61.007 360.054 61.405 359.45C61.8135 358.849 61.878 358.09 61.5931 357.43Z" fill="#0B0220"/>
<path d="M53.5018 352.893C54.5054 352.893 55.3188 352.08 55.3188 351.076C55.3188 350.072 54.5054 349.259 53.5018 349.259C52.4981 349.259 51.6845 350.072 51.6845 351.076C51.6845 352.08 52.4981 352.893 53.5018 352.893Z" fill="#0B0220"/>
</g>
<path d="M79.4318 384H32.9802C31.555 384 30.3996 385.155 30.3996 386.581V391.742C30.3996 393.167 31.555 394.323 32.9802 394.323H79.4318C80.8571 394.323 82.0125 393.167 82.0125 391.742V386.581C82.0125 385.155 80.8571 384 79.4318 384Z" fill="#4A0DDA"/>
</g>
<defs>
<clipPath id="clip0_411_151">
<rect x="0.722137" width="110.968" height="400" rx="10" fill="white"/>
</clipPath>
</defs>
</svg>
