<svg width="200" height="200" viewBox="0 0 200 200" fill="none" xmlns="http://www.w3.org/2000/svg">
<path opacity="0.4" d="M146.083 64.7501C145.5 64.6668 144.917 64.6668 144.333 64.7501C131.417 64.3335 121.167 53.7501 121.167 40.7501C121.167 27.5001 131.917 16.6667 145.25 16.6667C158.5 16.6667 169.333 27.4167 169.333 40.7501C169.25 53.7501 159 64.3335 146.083 64.7501Z" fill="#4A0DDA"/>
<path opacity="0.4" d="M173.25 122.5C163.917 128.75 150.833 131.083 138.75 129.5C141.917 122.667 143.583 115.083 143.667 107.083C143.667 98.7499 141.833 90.8333 138.333 83.9166C150.667 82.25 163.75 84.5832 173.167 90.8332C186.333 99.4998 186.333 113.75 173.25 122.5Z" fill="#4A0DDA"/>
<path opacity="0.4" d="M53.6667 64.7501C54.25 64.6668 54.8334 64.6668 55.4167 64.7501C68.3334 64.3335 78.5833 53.7501 78.5833 40.7501C78.5833 27.5001 67.8333 16.6667 54.5 16.6667C41.25 16.6667 30.4167 27.4167 30.4167 40.7501C30.5 53.7501 40.75 64.3335 53.6667 64.7501Z" fill="#4A0DDA"/>
<path opacity="0.4" d="M54.5833 107.083C54.5833 115.167 56.3333 122.833 59.5 129.75C47.75 131 35.5 128.5 26.5 122.583C13.3333 113.833 13.3333 99.5833 26.5 90.8333C35.4167 84.8333 48 82.4167 59.8333 83.7501C56.4167 90.7501 54.5833 98.6668 54.5833 107.083Z" fill="#4A0DDA"/>
<path d="M101 132.25C100.333 132.167 99.5833 132.167 98.8333 132.25C83.5 131.75 71.25 119.167 71.25 103.667C71.25 87.8334 84 75 99.9167 75C115.75 75 128.583 87.8334 128.583 103.667C128.583 119.167 116.417 131.75 101 132.25Z" fill="#4A0DDA"/>
<path d="M73.9167 149.5C61.3333 157.917 61.3333 171.75 73.9167 180.083C88.25 189.667 111.75 189.667 126.083 180.083C138.667 171.667 138.667 157.833 126.083 149.5C111.833 139.917 88.3333 139.917 73.9167 149.5Z" fill="#4A0DDA"/>
</svg>
