<svg width="116" height="100" viewBox="0 0 116 100" fill="none" xmlns="http://www.w3.org/2000/svg">
<g clip-path="url(#clip0_427_63)">
<path d="M114.912 26.6254L114.7 26.3074L107.509 18.8162C107.085 18.1802 107.367 17.2615 108.145 17.0141C109.24 16.6961 110.265 16.113 111.166 15.265C114.152 12.4028 114.293 7.70315 111.431 4.84096C108.693 1.8551 103.993 1.76676 101.007 4.64662C100.124 5.49467 99.4876 6.50174 99.1166 7.57948C98.8339 8.3392 97.8975 8.56888 97.2968 8.12718L90.1237 0.600681L89.8233 0.388666C89.3639 -0.0530297 88.6396 -0.0530297 88.1802 0.406334L79.8586 8.37453C79.3463 8.40987 78.8339 8.12718 78.6749 7.57948C77.9858 5.12365 75.954 3.02118 72.5088 2.3498C72.1555 2.27913 71.7668 2.27913 71.4134 2.3498C64.3639 3.58655 62.5442 10.9187 66.3427 14.894C67.1378 15.742 68.1095 16.3427 69.1343 16.6961C69.6996 16.8728 69.947 17.4381 69.841 17.9858L61.4841 25.9894C61.0071 26.4664 60.9894 27.2085 61.4311 27.6855L68.9929 35.5653L69.1166 35.6537L69.1696 35.7067C69.8056 36.3781 70.9364 36.0247 71.1661 35.106C71.8551 32.4381 74.0636 30.0706 77.7385 29.3463C78.4275 29.2933 79.1166 29.3286 79.788 29.4699C81.3251 29.894 82.5618 30.636 83.4629 31.5724C84.3639 32.5265 85.0353 33.7809 85.3887 35.3533C85.5123 36.0247 85.53 36.7138 85.4417 37.4028C84.5583 41.0424 82.0848 43.1272 79.3816 43.6926C78.4629 43.9046 78.0565 45 78.6926 45.6714L78.7456 45.7244L78.8339 45.8657L86.3604 53.7632C86.8198 54.2226 87.5618 54.2403 88.0565 53.7809L96.4311 45.7774C96.9788 45.7067 97.5265 45.9894 97.6855 46.5547C98.0035 47.5971 98.5512 48.5865 99.3639 49.4346C103.163 53.3922 110.565 51.9081 112.12 44.9293C112.208 44.576 112.208 44.1873 112.155 43.8339C111.643 40.371 109.629 38.2509 107.226 37.4205C106.696 37.2438 106.413 36.7314 106.484 36.2191L114.823 28.2685C115.283 27.8268 115.318 27.1024 114.912 26.6254Z" fill="#4A0DDA"/>
<path d="M76.7315 99.8586H76.8021L76.9611 99.894L87.8799 99.947C88.5336 99.947 89.0636 99.3993 89.0636 98.7279L89.0989 87.1554C89.417 86.7137 90 86.5017 90.53 86.7667C91.5018 87.2791 92.5972 87.5795 93.7633 87.5795C99.258 87.5795 103.322 81.219 99.3463 75.2473C99.1519 74.947 98.8869 74.6643 98.6042 74.4699C95.7421 72.4205 92.8092 72.4028 90.5654 73.5865C90.053 73.8339 89.4876 73.6749 89.1696 73.2685L89.205 61.7667C89.2226 61.113 88.7279 60.583 88.0919 60.5653L87.7209 60.477H77.3322C76.5901 60.3533 76.1131 59.5053 76.4841 58.7809C76.9965 57.7561 77.2968 56.6077 77.2968 55.3886C77.3145 51.2367 74.0106 47.8798 69.9647 47.9682C65.9187 47.8621 62.6148 51.2014 62.6148 55.3533C62.6148 56.5724 62.8975 57.7385 63.4099 58.7455C63.7809 59.4699 63.2862 60.318 62.5442 60.4417L52.1555 60.3886L51.7845 60.4593C51.3428 60.477 50.9541 60.7597 50.7774 61.166C50.8481 61.3427 50.8834 61.5371 50.8834 61.7314L50.8657 73.6219L50.212 73.4982C49.9117 73.6219 49.576 73.6395 49.258 73.4805L49.0459 73.3922C48.7044 73.3922 48.3451 73.4157 47.9682 73.4629L47.8799 73.4805L47.7739 73.4629C47.3675 73.3922 46.9965 73.3215 46.6608 73.3215C43.3216 73.3215 40.5654 75.901 40.1414 79.2402C40.106 79.5229 40.0883 79.8233 40.0883 80.1236C40.0883 81.325 40.4064 82.5971 41.0954 83.9045C41.2544 84.1696 41.3958 84.4699 41.5901 84.7526C41.7491 84.9823 41.9611 85.212 42.1908 85.371C43.7279 86.4487 45.212 86.8904 46.6255 86.8904C46.9906 86.8904 47.3557 86.861 47.7209 86.8021L47.8092 86.7844L47.9152 86.8021C48.2156 86.8374 48.4452 86.8904 48.6749 86.9081C48.8516 86.8374 49.0283 86.7667 49.2226 86.6784C49.5936 86.4664 50 86.5371 50.318 86.7491L50.8304 86.6431L50.8127 98.7102C50.8127 98.8692 50.7951 99.0106 50.7597 99.1696C50.9541 99.5583 51.3428 99.8409 51.8021 99.8409L62.7209 99.8586L62.8799 99.8233H62.9505C63.8869 99.841 64.3993 98.7809 63.8869 97.9682C62.4558 95.636 62.2615 92.4028 64.2933 89.2402C64.735 88.7102 65.2474 88.2508 65.8127 87.8621C67.1908 87.0318 68.5689 86.6607 69.8763 86.6431C71.1838 86.6784 72.5618 87.0494 73.9223 87.8798C74.4876 88.2685 75 88.7455 75.4417 89.2756C77.4558 92.4381 77.2438 95.6713 75.7951 98.0035C75.3004 98.8162 75.7951 99.8586 76.7315 99.8586Z" fill="#D7CAF7"/>
<path d="M38.1095 58.9753L38.0742 59.0283V59.0636L38.0035 59.311C38.0035 59.5583 38.2155 59.8233 38.4806 59.894L48.7809 59.8763C48.9399 59.8763 49.0636 59.9117 49.1873 59.947C49.5583 59.947 49.8763 60.0884 50.159 60.2827L50.212 59.9647L50.265 48.3746C50.583 47.9329 51.1661 47.7385 51.6961 48.0036C52.6678 48.5159 53.7632 48.7986 54.9293 48.7986C60.424 48.7986 64.47 42.4382 60.5124 36.4665C60.318 36.1661 60.053 35.9011 59.7527 35.6891C56.9081 33.6573 53.9753 33.6396 51.7138 34.8057C51.2191 35.0707 50.6537 34.894 50.3357 34.5053L50.371 22.9859C50.371 22.3498 49.8763 21.8198 49.2579 21.7845L48.8869 21.7138H38.4982C37.7385 21.5725 37.2615 20.7244 37.6325 20C38.1625 18.993 38.4452 17.8445 38.4629 16.6078C38.4806 12.4735 35.1767 9.11663 31.1307 9.20497C27.0848 9.09896 23.7633 12.4382 23.7633 16.5725C23.7633 17.8092 24.0636 18.9576 24.576 19.9824C24.9293 20.7067 24.4523 21.5371 23.7102 21.6608L13.3216 21.6255L12.9505 21.6961C12.3145 21.7138 11.8198 22.2438 11.8198 22.8976L11.8021 34.3993C11.4841 34.8057 10.9187 34.9647 10.424 34.6997C8.16255 33.5159 5.22969 33.5336 2.3675 35.5477C2.08481 35.7597 1.81979 36.0248 1.60778 36.3251C-2.38515 42.2792 1.64311 48.6573 7.13781 48.6749C8.30389 48.6926 9.3993 48.4099 10.371 47.8975C10.9011 47.6325 11.4841 47.8445 11.8021 48.2862L11.7845 59.8587C11.7845 60.0177 11.8198 60.1414 11.8728 60.2827C12.1378 60.0707 12.4735 59.947 12.8269 59.947C12.9505 59.9117 13.0742 59.8763 13.2332 59.8763L23.5336 59.894C23.7986 59.8233 24.0106 59.5583 24.0106 59.311L23.9399 59.0636V59.0283L23.9223 58.993L23.9046 58.9576C23.3746 57.8976 23.0742 56.6961 23.0742 55.4241V55.3887V55.371C23.0742 54.5583 23.2156 53.8163 23.4276 53.1096C24.364 49.8233 27.2968 47.4028 30.8304 47.4028H31.0247H31.1837C34.7173 47.4028 37.6502 49.8233 38.6042 53.1096C38.7986 53.8163 38.9399 54.5583 38.9399 55.371V55.3887C38.9399 56.6785 38.6396 57.8975 38.1095 58.9753Z" fill="#D7CAF7"/>
<path d="M41.6784 73.993C43.0389 72.7739 44.8057 72.0318 46.7491 72.0318L46.7668 72.6149V72.0318C47.2262 72.0318 47.6502 72.1025 48.0212 72.1732C48.4276 72.1202 48.8163 72.0848 49.2049 72.0848C49.3934 72.0848 49.5877 72.0966 49.788 72.1202V61.6255C49.788 61.3074 49.5583 61.0601 49.2756 61.0248H49.2403H49.1519L49.0636 60.9894L48.8869 60.9541L38.4629 60.9718L38.4099 60.9541C37.5972 60.8127 37.0318 60.1414 36.9611 59.3463L36.9258 59.205C36.9258 58.9576 36.9788 58.6926 37.1025 58.4629L37.1201 58.3923L37.1378 58.3746C37.5972 57.4382 37.8622 56.3958 37.8622 55.2827V55.265C37.8622 54.6113 37.7385 53.9753 37.5618 53.3392C36.7491 50.5301 34.258 48.4806 31.2898 48.4806H31.1307H31.1131H31.0954H30.9364C29.5406 48.4806 28.2686 48.94 27.2085 49.7173C26.0071 50.5831 25.106 51.8551 24.6643 53.3392C24.5701 53.7044 24.4935 54.0695 24.4346 54.4347C24.3993 54.6997 24.364 54.9824 24.364 55.265V55.2827C24.364 56.3958 24.629 57.4382 25.106 58.3746V58.3923L25.1237 58.4276L25.1413 58.4629C25.2474 58.6926 25.3004 58.9576 25.3004 59.205L25.2827 59.3463C25.212 60.1414 24.6467 60.8127 23.8163 60.9541L23.7633 60.9718L13.3392 60.9541L13.2509 60.9718L13.1626 60.9894L13.0742 61.0248H12.9859C12.6855 61.0248 12.4382 61.2898 12.4382 61.6255L12.4558 73.3569L12.3145 73.5159C11.9965 73.9046 11.5018 74.1696 10.9717 74.1696C10.7067 74.1696 10.4417 74.099 10.1944 73.9753C9.29329 73.4983 8.30389 73.2509 7.24382 73.2509C5.8304 73.2509 4.31096 73.6926 2.75619 74.788C2.52651 74.9647 2.31449 75.1767 2.15548 75.4241C1.09541 76.9965 0.653717 78.5689 0.653717 80.0354C0.653717 83.7986 3.60425 86.8198 7.22615 86.8375C8.28623 86.8375 9.29329 86.5725 10.1767 86.1131C10.424 85.9894 10.6891 85.9188 10.9541 85.9188C11.5371 85.9188 12.0495 86.2191 12.3675 86.6785L12.4735 86.8198L12.4912 98.6043C12.4912 98.9576 12.7739 99.205 13.0742 99.205L23.9399 99.1873L24.1166 99.1696H24.1519H24.2226C24.3993 99.1696 24.5053 99.099 24.6113 99.0106C24.6997 98.9046 24.7703 98.7456 24.7703 98.5866L24.6643 98.2156C23.9046 96.9788 23.4629 95.5124 23.4629 93.9576C23.4629 92.3145 23.9399 90.5654 25.0353 88.8516L25.053 88.8163L25.0707 88.7986C25.5477 88.2156 26.1131 87.7209 26.7138 87.2968L26.7315 87.2792H26.7491C28.1979 86.3958 29.6997 85.9894 31.1131 85.9718H31.1307C32.5442 85.9894 34.0283 86.3958 35.477 87.2792H35.4947L35.5124 87.2968C36.1307 87.7209 36.6785 88.2156 37.1555 88.7986L37.1731 88.8339L37.1908 88.8516C38.2862 90.5654 38.7809 92.3145 38.7633 93.9576C38.7633 95.5124 38.3392 96.9788 37.5618 98.2156L37.4558 98.5866C37.4558 98.7456 37.5265 98.9046 37.6148 99.0106C37.7209 99.099 37.8269 99.1696 38.0035 99.1696H38.1095H38.1449L38.2862 99.1873L49.1519 99.205C49.47 99.205 49.735 98.9576 49.735 98.6043L49.7527 87.9682C49.5053 88.0036 49.2579 88.0212 48.9929 88.0212C48.5336 88.0212 48.1802 87.9152 47.8799 87.8799C47.5088 87.9329 47.1201 87.9682 46.7314 87.9682C45.1413 87.9682 43.4452 87.4735 41.7845 86.3428L41.6078 86.2368C41.2544 85.9718 40.9541 85.6714 40.7067 85.3004C40.0707 84.364 39.6466 83.4099 39.3816 82.4735C39.2933 82.1908 39.2226 81.8905 39.1696 81.6078C39.0636 81.0601 39.0106 80.5301 39.0106 80.0177C39.0106 77.6149 40.0353 75.4594 41.6784 73.993Z" fill="#D7CAF7"/>
</g>
<defs>
<clipPath id="clip0_427_63">
<rect width="115.194" height="100" fill="white"/>
</clipPath>
</defs>
</svg>
