<svg width="24" height="25" viewBox="0 0 24 25" fill="none" xmlns="http://www.w3.org/2000/svg">
<path d="M12 21.375H7C3.35 21.375 1.25 19.275 1.25 15.625V8.625C1.25 4.975 3.35 2.875 7 2.875H17C20.65 2.875 22.75 4.975 22.75 8.625V11.625C22.75 12.035 22.41 12.375 22 12.375C21.59 12.375 21.25 12.035 21.25 11.625V8.625C21.25 5.765 19.86 4.375 17 4.375H7C4.14 4.375 2.75 5.765 2.75 8.625V15.625C2.75 18.485 4.14 19.875 7 19.875H12C12.41 19.875 12.75 20.215 12.75 20.625C12.75 21.035 12.41 21.375 12 21.375Z" fill="#EAE6F5"/>
<path d="M11.9998 12.995C11.1598 12.995 10.3098 12.735 9.65978 12.205L6.52978 9.70496C6.20978 9.44496 6.14978 8.97497 6.40978 8.65497C6.66978 8.33497 7.13977 8.28497 7.45977 8.53497L10.5898 11.035C11.3498 11.645 12.6398 11.645 13.3998 11.035L16.5298 8.53497C16.8498 8.27497 17.3198 8.32497 17.5798 8.65497C17.8398 8.97497 17.7898 9.45496 17.4598 9.70496L14.3298 12.205C13.6898 12.735 12.8398 12.995 11.9998 12.995Z" fill="#EAE6F5"/>
<path d="M15.8201 21.905C15.4401 21.905 15.0801 21.765 14.8201 21.505C14.5101 21.195 14.3701 20.745 14.4401 20.275L14.6301 18.925C14.6801 18.575 14.8901 18.155 15.1401 17.905L18.68 14.365C19.16 13.885 19.6301 13.635 20.1401 13.585C20.7601 13.525 21.38 13.785 21.96 14.365C22.54 14.945 22.8 15.555 22.74 16.185C22.69 16.685 22.43 17.165 21.96 17.645L18.4201 21.185C18.1701 21.435 17.75 21.645 17.4 21.695L16.05 21.885C15.97 21.895 15.9001 21.905 15.8201 21.905ZM20.31 15.075C20.3 15.075 20.29 15.075 20.28 15.075C20.14 15.085 19.95 15.215 19.74 15.425L16.2001 18.965C16.1701 18.995 16.12 19.095 16.12 19.135L15.9401 20.385L17.1901 20.205C17.2301 20.195 17.33 20.145 17.36 20.115L20.9 16.575C21.11 16.355 21.2401 16.175 21.2501 16.035C21.2701 15.835 21.07 15.595 20.9 15.425C20.74 15.265 20.51 15.075 20.31 15.075Z" fill="#EAE6F5"/>
<path d="M20.9201 18.3749C20.8501 18.3749 20.7801 18.3649 20.7201 18.3449C19.4001 17.9749 18.3501 16.9249 17.9801 15.6049C17.8701 15.2049 18.1001 14.7949 18.5001 14.6749C18.9001 14.5649 19.3101 14.7949 19.4201 15.1949C19.6501 16.0149 20.3001 16.6649 21.1201 16.8949C21.5201 17.0049 21.7501 17.4249 21.6401 17.8249C21.5501 18.1549 21.2501 18.3749 20.9201 18.3749Z" fill="#EAE6F5"/>
</svg>
