<svg width="20" height="21" viewBox="0 0 20 21" fill="none" xmlns="http://www.w3.org/2000/svg">
<g id="vuesax/bold/tick-circle">
<g id="tick-circle">
<path id="Vector" d="M9.99999 2.16675C5.40832 2.16675 1.66666 5.90841 1.66666 10.5001C1.66666 15.0917 5.40832 18.8334 9.99999 18.8334C14.5917 18.8334 18.3333 15.0917 18.3333 10.5001C18.3333 5.90841 14.5917 2.16675 9.99999 2.16675ZM13.9833 8.58341L9.25832 13.3084C9.14166 13.4251 8.98332 13.4917 8.81666 13.4917C8.64999 13.4917 8.49166 13.4251 8.37499 13.3084L6.01666 10.9501C5.77499 10.7084 5.77499 10.3084 6.01666 10.0667C6.25832 9.82508 6.65832 9.82508 6.89999 10.0667L8.81666 11.9834L13.1 7.70008C13.3417 7.45842 13.7417 7.45842 13.9833 7.70008C14.225 7.94175 14.225 8.33341 13.9833 8.58341Z" fill="#0B0220"/>
</g>
</g>
</svg>
