<svg width="21" height="21" viewBox="0 0 21 21" fill="none" xmlns="http://www.w3.org/2000/svg">
<path d="M10.6667 2.16675C6.07499 2.16675 2.33332 5.90841 2.33332 10.5001C2.33332 15.0917 6.07499 18.8334 10.6667 18.8334C15.2583 18.8334 19 15.0917 19 10.5001C19 5.90841 15.2583 2.16675 10.6667 2.16675ZM14.65 8.58341L9.92499 13.3084C9.80832 13.4251 9.64999 13.4917 9.48332 13.4917C9.31666 13.4917 9.15832 13.4251 9.04166 13.3084L6.68332 10.9501C6.44166 10.7084 6.44166 10.3084 6.68332 10.0667C6.92499 9.82508 7.32499 9.82508 7.56666 10.0667L9.48332 11.9834L13.7667 7.70008C14.0083 7.45841 14.4083 7.45841 14.65 7.70008C14.8917 7.94175 14.8917 8.33341 14.65 8.58341Z" fill="#EAE6F5"/>
</svg>
