<svg width="100" height="100" viewBox="0 0 100 100" fill="none" xmlns="http://www.w3.org/2000/svg">
<g clip-path="url(#clip0_430_78)">
<path d="M40.625 6.25C35.6539 6.25554 30.888 8.23276 27.3729 11.7479C23.8578 15.263 21.8805 20.0289 21.875 25H28.125C28.125 21.6848 29.442 18.5054 31.7862 16.1612C34.1304 13.817 37.3098 12.5 40.625 12.5C43.9402 12.5 47.1196 13.817 49.4638 16.1612C51.808 18.5054 53.125 21.6848 53.125 25H59.375C59.3695 20.0289 57.3922 15.263 53.8771 11.7479C50.362 8.23276 45.5961 6.25554 40.625 6.25Z" fill="#4A0DDA"/>
<path d="M65.625 93.75H51.7519C48.6159 93.7502 45.5945 92.5716 43.2869 90.4481L14.5353 63.9909C13.864 63.3772 13.3346 62.6244 12.984 61.7851C12.6334 60.9457 12.47 60.04 12.5054 59.1311C12.5407 58.2222 12.7738 57.3319 13.1884 56.5223C13.6031 55.7127 14.1893 55.0033 14.9062 54.4434C16.1339 53.5443 17.6387 53.1056 19.1572 53.2043C20.6757 53.3031 22.111 53.9329 23.2119 54.9834L34.375 65.1778V25C34.375 23.3424 35.0335 21.7527 36.2056 20.5806C37.3777 19.4085 38.9674 18.75 40.625 18.75C42.2826 18.75 43.8723 19.4085 45.0444 20.5806C46.2165 21.7527 46.875 23.3424 46.875 25V46.875C46.875 45.2174 47.5335 43.6277 48.7056 42.4556C49.8777 41.2835 51.4674 40.625 53.125 40.625C54.7826 40.625 56.3723 41.2835 57.5444 42.4556C58.7165 43.6277 59.375 45.2174 59.375 46.875V50C59.375 48.3424 60.0335 46.7527 61.2056 45.5806C62.3777 44.4085 63.9674 43.75 65.625 43.75C67.2826 43.75 68.8723 44.4085 70.0444 45.5806C71.2165 46.7527 71.875 48.3424 71.875 50V53.125C71.875 51.4674 72.5335 49.8777 73.7056 48.7056C74.8777 47.5335 76.4674 46.875 78.125 46.875C79.7826 46.875 81.3723 47.5335 82.5444 48.7056C83.7165 49.8777 84.375 51.4674 84.375 53.125V75C84.375 79.9728 82.3996 84.742 78.8833 88.2583C75.367 91.7746 70.5978 93.75 65.625 93.75Z" fill="#D7CAF7"/>
</g>
<defs>
<clipPath id="clip0_430_78">
<rect width="100" height="100" fill="white"/>
</clipPath>
</defs>
</svg>
