<svg width="36" height="36" viewBox="0 0 36 36" fill="none" xmlns="http://www.w3.org/2000/svg">
<g id="tabler-icon-device-mobile">
<path id="Vector" d="M16.5417 6.33333H19.4583M18 25.2917V25.3063M9.25 7.79167C9.25 7.01812 9.55729 6.27625 10.1043 5.72927C10.6513 5.18229 11.3931 4.875 12.1667 4.875H23.8333C24.6069 4.875 25.3487 5.18229 25.8957 5.72927C26.4427 6.27625 26.75 7.01812 26.75 7.79167V28.2083C26.75 28.9819 26.4427 29.7237 25.8957 30.2707C25.3487 30.8177 24.6069 31.125 23.8333 31.125H12.1667C11.3931 31.125 10.6513 30.8177 10.1043 30.2707C9.55729 29.7237 9.25 28.9819 9.25 28.2083V7.79167Z" stroke="#08101A" stroke-width="2" stroke-linecap="round" stroke-linejoin="round"/>
</g>
</svg>
