<svg width="31" height="30" viewBox="0 0 31 30" fill="none" xmlns="http://www.w3.org/2000/svg">
<path d="M10.5 11.25H20.5M10.5 16.25H18M16.125 25.625L15.5 26.25L11.75 22.5H8C7.00544 22.5 6.05161 22.1049 5.34835 21.4017C4.64509 20.6984 4.25 19.7446 4.25 18.75V8.75C4.25 7.75544 4.64509 6.80161 5.34835 6.09835C6.05161 5.39509 7.00544 5 8 5H23C23.9946 5 24.9484 5.39509 25.6517 6.09835C26.3549 6.80161 26.75 7.75544 26.75 8.75V15.625M20.5 23.75H28M24.25 20V27.5" stroke="#356DAE" stroke-width="2.5" stroke-linecap="round" stroke-linejoin="round"/>
</svg>
