<svg width="36" height="36" viewBox="0 0 36 36" fill="none" xmlns="http://www.w3.org/2000/svg">
<g id="tabler-icon-mail">
<path id="Vector" d="M4.875 10.7083C4.875 9.93477 5.18229 9.19291 5.72927 8.64593C6.27625 8.09895 7.01812 7.79166 7.79167 7.79166H28.2083C28.9819 7.79166 29.7237 8.09895 30.2707 8.64593C30.8177 9.19291 31.125 9.93477 31.125 10.7083M4.875 10.7083V25.2917C4.875 26.0652 5.18229 26.8071 5.72927 27.354C6.27625 27.901 7.01812 28.2083 7.79167 28.2083H28.2083C28.9819 28.2083 29.7237 27.901 30.2707 27.354C30.8177 26.8071 31.125 26.0652 31.125 25.2917V10.7083M4.875 10.7083L18 19.4583L31.125 10.7083" stroke="#08101A" stroke-width="2" stroke-linecap="round" stroke-linejoin="round"/>
</g>
</svg>
