<svg width="40" height="40" viewBox="0 0 40 40" fill="none" xmlns="http://www.w3.org/2000/svg">
<g id="tabler-icon-player-play-filled">
<path id="Vector" d="M10 6.66668V33.3333C9.99992 33.6299 10.079 33.9211 10.229 34.1769C10.379 34.4327 10.5945 34.6439 10.8534 34.7886C11.1122 34.9333 11.405 35.0063 11.7015 35.0001C11.998 34.9939 12.2874 34.9087 12.54 34.7533L34.2067 21.42C34.4493 21.2709 34.6497 21.0621 34.7888 20.8135C34.9278 20.5649 35.0008 20.2848 35.0008 20C35.0008 19.7152 34.9278 19.4351 34.7888 19.1865C34.6497 18.9379 34.4493 18.7291 34.2067 18.58L12.54 5.24668C12.2874 5.09129 11.998 5.0061 11.7015 4.99991C11.405 4.99371 11.1122 5.06674 10.8534 5.21145C10.5945 5.35616 10.379 5.56731 10.229 5.82312C10.079 6.07893 9.99992 6.37013 10 6.66668Z" fill="#356DAE"/>
</g>
</svg>
