<svg width="453" height="400" viewBox="0 0 453 400" fill="none" xmlns="http://www.w3.org/2000/svg">
<path d="M236.867 339.111L229.142 220.43L229.403 220.412L238.176 339.019C237.739 339.052 237.303 339.082 236.867 339.111ZM212.896 339.029L211.755 338.94L221.24 220.389L221.669 220.421L212.896 339.029ZM262.32 335.472L236.372 219.406L236.935 219.28L263.293 335.253L262.32 335.472ZM187.795 335.285L186.676 335.027L213.701 219.207L214.115 219.302L187.795 335.285ZM286.512 328.181L243.794 217.186L244.106 217.065L287.669 327.73C287.285 327.882 286.899 328.032 286.512 328.181ZM163.473 327.807L162.405 327.385L206.455 216.913L206.857 217.072L163.473 327.807ZM309.563 317.248L250.557 213.987L250.954 213.759L310.529 316.693L309.563 317.248ZM140.515 316.75C140.162 316.546 139.809 316.34 139.458 316.134L199.743 213.614L200.049 213.792L140.515 316.75ZM330.491 303.163L257.012 209.645L257.241 209.464L331.494 302.368C331.161 302.635 330.826 302.899 330.491 303.163ZM119.599 302.485C119.229 302.191 118.861 301.895 118.495 301.597L193.558 209.346L193.68 209.445L119.599 302.485ZM349.266 285.978L262.589 204.543L262.864 204.248L350.066 285.122L349.266 285.978ZM100.976 285.224L100.23 284.416L187.769 203.908L188.09 204.256L100.976 285.224ZM365.143 266.378L267.497 198.48L267.642 198.27L365.892 265.29C365.644 265.653 365.395 266.015 365.143 266.378ZM85.1568 265.44C84.9218 265.097 84.6879 264.752 84.456 264.407L183.114 197.99L183.294 198.256L85.1568 265.44ZM378.121 244.296L271.26 192.091L271.503 191.593L378.569 243.376L378.121 244.296ZM72.4177 243.461C72.2354 243.084 72.0542 242.706 71.8747 242.327L179.354 191.407L179.488 191.687L72.4177 243.461ZM387.526 220.824L274.153 184.894L274.239 184.616L387.911 219.593C387.784 220.003 387.656 220.414 387.526 220.824ZM63.0848 219.753C62.9659 219.368 62.8486 218.984 62.7325 218.599L176.619 184.327L176.726 184.678L63.0848 219.753ZM393.376 195.907L275.852 177.665L275.918 177.23L393.547 194.786L393.376 195.907ZM57.4291 194.987C57.3682 194.584 57.3094 194.182 57.2517 193.779L174.98 176.911L175.031 177.259L57.4291 194.987ZM395.411 170.861L276.484 169.805L276.485 169.314H395.416V169.546C395.416 169.985 395.415 170.423 395.411 170.861ZM174.461 169.662H55.5297L55.5324 168.566L174.462 169.183L174.461 169.662ZM275.947 162.055L275.91 161.804L393.486 143.905C393.552 144.34 393.617 144.775 393.679 145.211L275.947 162.055ZM175.025 161.878L57.3675 144.519C57.4282 144.108 57.4906 143.697 57.5544 143.286L175.074 161.556L175.025 161.878ZM274.36 154.871L274.193 154.328L387.819 119.204L388.114 120.166L274.36 154.871ZM176.68 154.561L62.9935 119.635L63.3427 118.511L176.801 154.174L176.68 154.561ZM271.629 147.763L271.425 147.336L378.462 95.4925L378.937 96.4802L271.629 147.763ZM179.426 147.534L72.292 95.8925L72.7727 94.9014L179.634 147.106L179.426 147.534ZM267.891 141.188L267.587 140.74L365.724 73.5565L366.304 74.4075L267.891 141.188ZM183.266 140.877L84.9613 73.9386C85.1912 73.6007 85.4224 73.2639 85.655 72.9278L183.464 140.588L183.266 140.877ZM262.971 134.96L262.821 134.798L349.848 53.737C350.156 54.0671 350.461 54.3986 350.766 54.7309L262.971 134.96ZM188.044 134.885L100.761 54.0998C101.037 53.8009 101.316 53.5027 101.595 53.2055L188.283 134.629L188.044 134.885ZM257.437 129.786L257.175 129.575L331.256 36.5349C331.579 36.7916 331.902 37.0503 332.223 37.3104L257.437 129.786ZM193.668 129.657L119.308 36.8389C119.641 36.5721 119.975 36.3069 120.31 36.0429L193.897 129.475L193.668 129.657ZM251.206 125.479L250.863 125.28L310.265 22.2454L311.285 22.8378L251.206 125.479ZM199.958 125.352L140.25 22.4948C140.603 22.2903 140.956 22.0874 141.309 21.8854L200.259 125.179L199.958 125.352ZM244.322 122.113L244.011 121.99L287.336 11.2307C287.723 11.3821 288.109 11.5346 288.493 11.6883L244.322 122.113ZM206.808 122.039L163.093 11.4339C163.483 11.2795 163.874 11.127 164.266 10.976L207.101 121.925L206.808 122.039ZM237.133 119.859L236.82 119.787L262.936 3.75875C263.344 3.85059 263.751 3.94387 264.157 4.03868L237.133 119.859ZM213.982 119.82L187.457 3.8843C187.87 3.78976 188.284 3.69648 188.699 3.6051L214.276 119.753L213.982 119.82ZM229.583 118.694L229.249 118.669L237.847 0.0488099C238.259 0.0785473 238.671 0.110001 239.081 0.142902L229.583 118.694ZM221.521 118.681L212.561 0.0882188C212.971 0.0573064 213.383 0.0279297 213.794 0L221.857 118.657L221.521 118.681Z" fill="#E6E6E6"/>
<path d="M85.7362 314.25C84.1458 314.25 82.7573 313.738 81.571 312.714C80.3847 311.689 79.7914 310.257 79.7914 308.414C79.7914 306.78 80.365 305.406 81.5123 304.29C82.6595 303.176 84.0675 302.617 85.7362 302.617C87.3788 302.617 88.7608 303.176 89.8819 304.29C91.0031 305.406 91.5637 306.78 91.5637 308.414C91.5637 310.23 90.977 311.657 89.8037 312.694C88.6304 313.731 87.2746 314.25 85.7362 314.25Z" fill="#EBEBEB"/>
<path d="M67.4183 268.853C67.4183 266.454 68.1929 264.022 69.7418 261.559C71.2908 259.097 73.5508 257.057 76.5218 255.44C79.4928 253.824 82.959 253.015 86.9203 253.015C90.6023 253.015 93.8526 253.691 96.6713 255.042C99.49 256.394 101.667 258.231 103.204 260.555C104.74 262.88 105.508 265.405 105.508 268.133C105.508 270.281 105.07 272.163 104.194 273.779C103.318 275.396 102.277 276.791 101.071 277.966C99.8645 279.141 97.6997 281.117 94.5764 283.896C93.713 284.679 93.0211 285.368 92.5005 285.961C91.9799 286.555 91.5927 287.098 91.3388 287.59C91.0848 288.083 90.888 288.575 90.7484 289.068C90.6087 289.561 90.3992 290.426 90.1199 291.664C89.6374 294.291 88.1265 295.604 85.5872 295.604C84.2667 295.604 83.1558 295.175 82.2543 294.316C81.3529 293.457 80.9021 292.181 80.9021 290.489C80.9021 288.367 81.2322 286.529 81.8925 284.976C82.5527 283.422 83.4288 282.058 84.5207 280.884C85.6126 279.709 87.0854 278.313 88.9391 276.697C90.5643 275.282 91.7387 274.215 92.4624 273.495C93.1861 272.775 93.7955 271.974 94.2908 271.089C94.7859 270.205 95.0335 269.245 95.0335 268.209C95.0335 266.188 94.278 264.483 92.7671 263.094C91.2563 261.705 89.3073 261.01 86.9203 261.01C84.1271 261.01 82.0702 261.711 80.7498 263.113C79.4294 264.515 78.3121 266.58 77.3979 269.308C76.5345 272.163 74.8966 273.59 72.4843 273.59C71.0623 273.59 69.8625 273.091 68.8848 272.093C67.9071 271.095 67.4183 270.015 67.4183 268.853Z" fill="#EBEBEB"/>
<path d="M367.794 244.824C366.208 244.703 364.862 244.087 363.757 242.975C362.652 241.863 362.17 240.39 362.31 238.553C362.434 236.924 363.111 235.597 364.339 234.572C365.568 233.548 367.015 233.098 368.678 233.225C370.316 233.35 371.652 234.012 372.685 235.209C373.718 236.406 374.172 237.819 374.048 239.449C373.91 241.259 373.217 242.637 371.968 243.582C370.719 244.527 369.328 244.941 367.794 244.824Z" fill="#F0F0F0"/>
<path d="M352.981 198.166C353.164 195.773 354.121 193.408 355.853 191.07C357.584 188.732 359.993 186.87 363.078 185.484C366.164 184.098 369.681 183.555 373.631 183.856C377.303 184.136 380.492 185.058 383.2 186.619C385.907 188.181 387.939 190.179 389.294 192.613C390.649 195.048 391.223 197.624 391.015 200.344C390.852 202.485 390.272 204.329 389.276 205.874C388.279 207.419 387.135 208.732 385.843 209.811C384.551 210.891 382.242 212.697 378.917 215.23C377.996 215.945 377.254 216.579 376.69 217.131C376.126 217.684 375.698 218.196 375.407 218.667C375.117 219.139 374.883 219.615 374.706 220.096C374.53 220.576 374.255 221.424 373.882 222.636C373.201 225.22 371.595 226.414 369.063 226.221C367.746 226.12 366.671 225.608 365.838 224.683C365.004 223.758 364.652 222.452 364.781 220.764C364.942 218.648 365.411 216.841 366.187 215.342C366.964 213.843 367.941 212.55 369.119 211.462C370.297 210.374 371.872 209.094 373.843 207.623C375.571 206.336 376.823 205.361 377.6 204.698C378.376 204.036 379.045 203.283 379.606 202.438C380.167 201.594 380.487 200.657 380.565 199.624C380.719 197.609 380.095 195.851 378.695 194.351C377.294 192.851 375.403 192.01 373.023 191.828C370.238 191.616 368.134 192.158 366.711 193.456C365.287 194.753 364.016 196.727 362.897 199.378C361.819 202.159 360.078 203.457 357.672 203.274C356.254 203.165 355.096 202.577 354.197 201.508C353.298 200.438 352.893 199.324 352.981 198.166Z" fill="#F0F0F0"/>
<path d="M81.6939 95.3224C80.2853 95.2491 79.0792 94.7314 78.0758 93.7693C77.0724 92.8073 76.6131 91.5112 76.6981 89.8798C76.7734 88.4327 77.3449 87.2417 78.4123 86.3068C79.4797 85.3725 80.7524 84.9431 82.2303 85.02C83.685 85.0957 84.8832 85.6539 85.8246 86.6928C86.7662 87.7322 87.1993 88.9755 87.124 90.4227C87.0402 92.0307 86.4548 93.2675 85.3679 94.1318C84.2809 94.996 83.0563 95.3934 81.6939 95.3224Z" fill="#E6E6E6"/>
<path d="M67.5644 54.2728C67.675 52.1475 68.4731 50.03 69.9585 47.9202C71.4438 45.8103 73.5394 44.1081 76.2452 42.8134C78.9509 41.519 82.058 40.9625 85.5663 41.1452C88.8272 41.315 91.6746 42.0638 94.1085 43.3901C96.5426 44.717 98.3862 46.445 99.6396 48.5739C100.893 50.7035 101.457 52.9755 101.331 55.3917C101.232 57.2932 100.757 58.9401 99.9069 60.3311C99.0565 61.7224 98.0701 62.9104 96.9477 63.895C95.8252 64.8797 93.8169 66.5305 90.9226 68.8473C90.1219 69.5009 89.4773 70.0792 88.989 70.5804C88.5005 71.0821 88.1326 71.5452 87.885 71.9698C87.6373 72.3943 87.4404 72.8215 87.2939 73.2513C87.1475 73.6811 86.9221 74.4381 86.6177 75.5209C86.0692 77.8258 84.6705 78.9189 82.4216 78.8019C81.2522 78.741 80.2881 78.3095 79.5294 77.5073C78.7706 76.7055 78.4303 75.5545 78.5083 74.0557C78.6062 72.1764 78.9833 70.5642 79.6396 69.2188C80.296 67.8733 81.1348 66.7057 82.156 65.7158C83.1772 64.7259 84.5458 63.5578 86.2621 62.2115C87.7666 61.0336 88.8559 60.1426 89.5301 59.5384C90.2042 58.9341 90.7809 58.2524 91.2602 57.4918C91.7396 56.7317 92.003 55.8934 92.0508 54.9757C92.144 53.186 91.5536 51.6411 90.2796 50.341C89.0055 49.0414 87.3116 48.3359 85.1976 48.2258C82.7238 48.097 80.8698 48.6229 79.6358 49.8037C78.4017 50.9844 77.317 52.7617 76.3816 55.1356C75.4853 57.6242 73.969 58.8123 71.8325 58.701C70.5731 58.6354 69.5335 58.1387 68.7137 57.2095C67.8938 56.2807 67.5108 55.3018 67.5644 54.2728Z" fill="#E6E6E6"/>
<path d="M120.421 231.252C119.526 231.185 118.766 230.838 118.141 230.211C117.517 229.583 117.243 228.752 117.322 227.714C117.391 226.794 117.772 226.045 118.465 225.466C119.159 224.887 119.975 224.632 120.915 224.703C121.839 224.773 122.594 225.145 123.178 225.821C123.762 226.496 124.019 227.294 123.95 228.214C123.873 229.236 123.482 230.015 122.777 230.549C122.073 231.083 121.287 231.318 120.421 231.252Z" fill="#EBEBEB"/>
<path d="M112.034 204.915C112.135 203.564 112.675 202.228 113.651 200.907C114.628 199.586 115.987 198.534 117.728 197.749C119.47 196.966 121.456 196.657 123.686 196.825C125.759 196.982 127.56 197.5 129.09 198.38C130.62 199.261 131.768 200.388 132.534 201.762C133.3 203.136 133.626 204.59 133.51 206.126C133.419 207.335 133.092 208.376 132.531 209.249C131.969 210.122 131.323 210.864 130.594 211.474C129.865 212.084 128.563 213.105 126.686 214.537C126.167 214.941 125.748 215.3 125.43 215.612C125.112 215.924 124.871 216.213 124.707 216.48C124.543 216.746 124.411 217.015 124.312 217.287C124.212 217.558 124.057 218.037 123.848 218.721C123.464 220.18 122.558 220.855 121.128 220.748C120.385 220.692 119.778 220.403 119.306 219.881C118.835 219.359 118.636 218.622 118.708 217.669C118.798 216.474 119.061 215.453 119.499 214.607C119.937 213.76 120.488 213.029 121.152 212.414C121.817 211.799 122.705 211.076 123.818 210.244C124.793 209.517 125.499 208.966 125.937 208.591C126.375 208.217 126.752 207.791 127.069 207.314C127.385 206.837 127.565 206.308 127.609 205.724C127.695 204.587 127.342 203.594 126.55 202.748C125.758 201.902 124.691 201.428 123.347 201.327C121.774 201.208 120.586 201.516 119.783 202.249C118.98 202.982 118.264 204.098 117.633 205.595C117.026 207.166 116.043 207.899 114.685 207.797C113.884 207.737 113.23 207.405 112.722 206.802C112.214 206.198 111.984 205.57 112.034 204.915Z" fill="#EBEBEB"/>
<path d="M302.173 244.456C301.278 244.388 300.518 244.041 299.893 243.414C299.269 242.787 298.995 241.955 299.074 240.918C299.143 239.998 299.524 239.248 300.218 238.669C300.911 238.09 301.727 237.835 302.667 237.906C303.592 237.976 304.346 238.349 304.93 239.024C305.514 239.699 305.771 240.497 305.702 241.417C305.625 242.44 305.234 243.218 304.529 243.752C303.825 244.286 303.039 244.521 302.173 244.456Z" fill="#EBEBEB"/>
<path d="M293.786 218.119C293.888 216.767 294.427 215.431 295.403 214.11C296.38 212.789 297.739 211.737 299.48 210.953C301.222 210.169 303.208 209.861 305.438 210.029C307.511 210.185 309.312 210.704 310.842 211.584C312.372 212.464 313.52 213.591 314.286 214.965C315.053 216.339 315.378 217.793 315.262 219.329C315.171 220.538 314.844 221.58 314.283 222.452C313.721 223.325 313.075 224.067 312.346 224.677C311.618 225.287 310.315 226.308 308.438 227.74C307.919 228.145 307.5 228.503 307.182 228.815C306.864 229.127 306.623 229.416 306.459 229.683C306.295 229.949 306.163 230.218 306.064 230.49C305.964 230.761 305.809 231.24 305.6 231.925C305.216 233.384 304.31 234.059 302.88 233.951C302.137 233.895 301.53 233.606 301.058 233.084C300.587 232.563 300.388 231.825 300.46 230.872C300.55 229.678 300.813 228.657 301.251 227.81C301.689 226.963 302.24 226.233 302.904 225.618C303.569 225.003 304.457 224.279 305.57 223.448C306.545 222.72 307.251 222.169 307.689 221.795C308.127 221.42 308.505 220.995 308.821 220.517C309.137 220.041 309.317 219.511 309.361 218.928C309.447 217.79 309.094 216.798 308.302 215.951C307.511 215.105 306.443 214.631 305.099 214.53C303.526 214.411 302.338 214.719 301.535 215.452C300.732 216.185 300.016 217.301 299.385 218.798C298.778 220.369 297.795 221.103 296.437 221C295.636 220.94 294.982 220.608 294.474 220.005C293.966 219.402 293.736 218.773 293.786 218.119Z" fill="#EBEBEB"/>
<path d="M367.696 101.288C366.798 101.288 366.014 100.999 365.344 100.42C364.674 99.8419 364.339 99.033 364.339 97.9929C364.339 97.0703 364.663 96.2941 365.311 95.6643C365.958 95.035 366.753 94.7198 367.696 94.7198C368.623 94.7198 369.403 95.035 370.036 95.6643C370.669 96.2941 370.986 97.0703 370.986 97.9929C370.986 99.0181 370.655 99.8238 369.992 100.409C369.33 100.995 368.564 101.288 367.696 101.288Z" fill="#EBEBEB"/>
<path d="M357.353 75.6556C357.353 74.3006 357.79 72.9279 358.665 71.5372C359.539 70.1465 360.815 68.9948 362.493 68.082C364.17 67.1696 366.128 66.7128 368.364 66.7128C370.443 66.7128 372.278 67.0946 373.87 67.8574C375.461 68.6204 376.691 69.6581 377.558 70.9702C378.426 72.2828 378.859 73.7087 378.859 75.2491C378.859 76.4615 378.612 77.5243 378.117 78.4368C377.623 79.3496 377.035 80.1376 376.354 80.8009C375.673 81.464 374.451 82.5801 372.687 84.149C372.2 84.5912 371.809 84.9801 371.515 85.315C371.221 85.6501 371.002 85.9568 370.859 86.2349C370.716 86.5131 370.605 86.7912 370.526 87.0693C370.447 87.3474 370.328 87.8362 370.171 88.5348C369.898 90.0185 369.045 90.7598 367.612 90.7598C366.866 90.7598 366.239 90.5173 365.73 90.0324C365.221 89.5477 364.966 88.8272 364.966 87.8716C364.966 86.6735 365.153 85.6359 365.525 84.7587C365.898 83.8816 366.393 83.1114 367.009 82.4482C367.626 81.785 368.457 80.997 369.504 80.0842C370.422 79.2854 371.085 78.6828 371.493 78.2763C371.902 77.8699 372.246 77.4173 372.526 76.9178C372.805 76.4186 372.945 75.8769 372.945 75.2918C372.945 74.1509 372.519 73.1881 371.665 72.4037C370.812 71.6195 369.712 71.227 368.364 71.227C366.787 71.227 365.626 71.6228 364.88 72.4144C364.135 73.206 363.504 74.3719 362.988 75.9123C362.5 77.5243 361.575 78.3299 360.213 78.3299C359.41 78.3299 358.733 78.0485 358.181 77.4847C357.629 76.9213 357.353 76.3117 357.353 75.6556Z" fill="#EBEBEB"/>
<path d="M401.779 269.746H238.408C235.486 269.746 233.109 267.369 233.109 264.447V26.4817C233.109 23.56 235.486 21.1833 238.408 21.1833H401.779C404.701 21.1833 407.078 23.56 407.078 26.4817V264.447C407.078 267.369 404.701 269.746 401.779 269.746ZM238.408 21.4093C235.611 21.4093 233.335 23.6849 233.335 26.4817V264.447C233.335 267.245 235.611 269.52 238.408 269.52H401.779C404.577 269.52 406.852 267.245 406.852 264.447V26.4817C406.852 23.6849 404.577 21.4093 401.779 21.4093H238.408Z" fill="#E0E0E0"/>
<path d="M213.387 269.746H50.0152C47.0936 269.746 44.7169 267.369 44.7169 264.447V26.4817C44.7169 23.56 47.0936 21.1833 50.0152 21.1833H213.387C216.309 21.1833 218.686 23.56 218.686 26.4817V264.447C218.686 267.369 216.309 269.746 213.387 269.746ZM50.0152 21.4093C47.2185 21.4093 44.9429 23.6849 44.9429 26.4817V264.447C44.9429 267.245 47.2185 269.52 50.0152 269.52H213.387C216.184 269.52 218.46 267.245 218.46 264.447V26.4817C218.46 23.6849 216.184 21.4093 213.387 21.4093H50.0152Z" fill="#E0E0E0"/>
<path d="M452.468 324.945H0.531738V325.171H452.468V324.945Z" fill="#E0E0E0"/>
<path d="M61.7532 337.838H47.237V338.064H61.7532V337.838Z" fill="#E0E0E0"/>
<path d="M202.893 335.389H154.509V335.615H202.893V335.389Z" fill="#E0E0E0"/>
<path d="M95.4225 346.235H62.6571V346.461H95.4225V346.235Z" fill="#E0E0E0"/>
<path d="M381.552 335.271H342.514V335.497H381.552V335.271Z" fill="#E0E0E0"/>
<path d="M395.328 335.271H389.606V335.497H395.328V335.271Z" fill="#E0E0E0"/>
<path d="M335.057 340.903H286.348V341.128H335.057V340.903Z" fill="#E0E0E0"/>
<path d="M417.653 394.358C417.653 397.474 331.611 400 225.473 400C119.335 400 33.293 397.474 33.293 394.358C33.293 391.242 119.335 388.716 225.473 388.716C331.611 388.716 417.653 391.242 417.653 394.358Z" fill="#F5F5F5"/>
<path d="M118.478 125.414C118.478 111.197 122.854 96.7931 131.605 82.2023C140.356 67.6115 153.124 55.5273 169.909 45.9497C186.695 36.3753 206.277 31.5834 228.658 31.5834C249.46 31.5834 267.823 35.5896 283.747 43.5928C299.672 51.599 311.974 62.486 320.653 76.2538C329.333 90.0246 333.672 104.986 333.672 121.149C333.672 133.869 331.198 145.021 326.248 154.595C321.299 164.173 315.417 172.441 308.602 179.4C301.788 186.358 289.557 198.068 271.912 214.53C267.034 219.169 263.124 223.25 260.183 226.764C257.242 230.28 255.055 233.498 253.62 236.416C252.185 239.334 251.074 242.252 250.284 245.171C249.495 248.089 248.312 253.217 246.734 260.547C244.008 276.114 235.472 283.892 221.126 283.892C213.666 283.892 207.389 281.348 202.296 276.26C197.203 271.175 194.657 263.615 194.657 253.588C194.657 241.018 196.522 230.131 200.252 220.927C203.982 211.724 208.931 203.643 215.1 196.684C221.269 189.725 229.59 181.457 240.063 171.88C249.244 163.499 255.88 157.177 259.968 152.912C264.057 148.647 267.5 143.898 270.298 138.658C273.095 133.42 274.494 127.736 274.494 121.598C274.494 109.626 270.226 99.5242 261.69 91.2935C253.154 83.0659 242.143 78.9474 228.658 78.9474C212.877 78.9474 201.256 83.1002 193.796 91.4057C186.336 99.7113 180.024 111.945 174.859 128.107C169.981 145.021 160.728 153.473 147.099 153.473C139.065 153.473 132.286 150.52 126.763 144.606C121.24 138.695 118.478 132.298 118.478 125.414Z" fill="#356DAE"/>
<path d="M221.968 394.358C212.982 394.358 205.138 391.323 198.435 385.254C191.733 379.184 188.382 370.697 188.382 359.784C188.382 350.104 191.622 341.96 198.104 335.353C204.585 328.748 212.54 325.442 221.968 325.442C231.248 325.442 239.055 328.748 245.389 335.353C251.724 341.96 254.891 350.104 254.891 359.784C254.891 370.541 251.576 378.995 244.948 385.138C238.319 391.281 230.659 394.358 221.968 394.358Z" fill="#356DAE"/>
<g opacity="0.2">
<path d="M223.783 334.162C222.899 333.284 221.554 333.097 220.309 333.032C216.828 332.85 213.638 333.325 210.288 334.289C205.313 336.193 201.078 339.967 198.617 344.692C196.155 349.416 195.489 355.049 196.78 360.218C197.367 362.564 198.923 365.211 201.339 365.103C202.937 365.032 204.181 363.749 205.246 362.556C207.785 359.711 210.324 356.866 212.864 354.021C216.666 349.761 220.497 345.462 223.362 340.523C224.513 338.538 225.411 335.778 223.783 334.162Z" fill="#FCFEFF"/>
</g>
<path d="M273.216 24.6581C264.111 17.9398 251.284 19.8743 244.566 28.9789C239.379 36.0078 239.37 45.2448 243.815 52.1872L242.16 58.1138L248.624 57.4134C248.715 57.4827 248.795 57.5608 248.887 57.6287C257.991 64.347 270.818 62.4123 277.537 53.3078C284.255 44.2031 282.32 31.3761 273.216 24.6581Z" fill="#356DAE"/>
<path opacity="0.7" d="M273.216 24.6581C264.111 17.9398 251.284 19.8743 244.566 28.9789C239.379 36.0078 239.37 45.2448 243.815 52.1872L242.16 58.1138L248.624 57.4134C248.715 57.4827 248.795 57.5608 248.887 57.6287C257.991 64.347 270.818 62.4123 277.537 53.3078C284.255 44.2031 282.32 31.3761 273.216 24.6581Z" fill="#FCFEFF"/>
<path d="M284.123 40.6234H284.116C283.991 40.6194 283.893 40.5157 283.897 40.3908C284.091 33.8338 280.712 27.2114 275.29 23.5195C275.186 23.4494 275.16 23.309 275.23 23.2057C275.3 23.1025 275.441 23.076 275.544 23.1461C281.091 26.9227 284.547 33.6969 284.349 40.404C284.345 40.5267 284.245 40.6234 284.123 40.6234Z" fill="#356DAE"/>
<path d="M283.437 46.6606C283.41 46.6606 283.382 46.6557 283.356 46.6456C283.239 46.6005 283.181 46.4699 283.226 46.3534C283.578 45.4389 283.741 44.438 283.698 43.4582C283.693 43.3333 283.789 43.2278 283.914 43.2225C284.032 43.2119 284.145 43.3134 284.15 43.4379C284.196 44.4794 284.022 45.544 283.648 46.5158C283.613 46.6054 283.528 46.6606 283.437 46.6606Z" fill="#356DAE"/>
<path d="M259.722 42.1493C260.066 41.5634 260.569 40.9168 261.23 40.2095C261.714 39.6921 262.07 39.2566 262.297 38.9033C262.525 38.5502 262.639 38.1493 262.639 37.7001C262.639 37.0627 262.422 36.5582 261.989 36.1874C261.556 35.8165 260.98 35.6314 260.261 35.6314C259.571 35.6314 258.958 35.7995 258.423 36.136C257.887 36.4715 257.436 36.9422 257.069 37.545L254.405 35.7091C255.022 34.6055 255.855 33.7516 256.904 33.1481C257.953 32.5445 259.197 32.2428 260.635 32.2428C262.323 32.2428 263.677 32.6658 264.697 33.5105C265.717 34.3552 266.226 35.5277 266.226 37.0283C266.226 37.7355 266.127 38.3559 265.929 38.8903C265.731 39.4248 265.489 39.8778 265.203 40.2479C264.917 40.6188 264.546 41.0458 264.092 41.5288C263.549 42.0978 263.153 42.5762 262.903 42.964C262.653 43.3518 262.528 43.8218 262.528 44.3739H259.205C259.205 43.4769 259.377 42.7359 259.722 42.1493ZM259.37 49.989C258.966 49.5801 258.764 49.0824 258.764 48.4954C258.764 47.9092 258.962 47.419 259.358 47.0253C259.755 46.6321 260.261 46.4348 260.877 46.4348C261.494 46.4348 262 46.6321 262.396 47.0253C262.792 47.419 262.991 47.9092 262.991 48.4954C262.991 49.0824 262.789 49.5801 262.386 49.989C261.982 50.3981 261.479 50.6022 260.877 50.6022C260.276 50.6022 259.773 50.3981 259.37 49.989Z" fill="#356DAE"/>
<path d="M292.91 74.2722C293.204 69.4695 290.761 65.3591 287.353 64.6911C287.575 64.6752 287.799 64.6721 288.025 64.686C291.774 64.9153 294.56 69.2438 294.247 74.354C293.935 79.4641 290.642 83.4208 286.893 83.1914C286.667 83.1776 286.445 83.1474 286.227 83.1045C289.691 82.8567 292.617 79.0746 292.91 74.2722Z" fill="#263238"/>
<path opacity="0.5" d="M286.934 83.1184C283.294 83.1184 280.343 78.9902 280.343 73.8978C280.343 68.8054 283.294 64.6771 286.934 64.6771C290.573 64.6771 293.524 68.8054 293.524 73.8978C293.524 78.9902 290.573 83.1184 286.934 83.1184Z" fill="#FCFEFF"/>
<path opacity="0.5" d="M282.849 67.3658L293.251 76.5282C293.119 77.2486 292.819 78.0727 292.453 78.9381L281.706 69.2787C281.957 68.6218 282.36 67.9875 282.849 67.3658Z" fill="#FCFEFF"/>
<path opacity="0.5" d="M284.264 65.8231L293.513 74.5629L293.431 75.3378L283.607 66.5067C283.858 65.8498 283.82 66.0726 284.264 65.8231Z" fill="#FCFEFF"/>
<path d="M279.333 73.4417C279.646 68.3315 282.938 64.3748 286.688 64.6042C286.913 64.618 287.135 64.6483 287.353 64.6911C283.89 64.9389 280.964 68.721 280.67 73.5235C280.376 78.3261 283.032 82.4506 286.44 83.1185C286.218 83.1343 285.782 83.1235 285.556 83.1097C281.807 82.8803 279.021 78.5518 279.333 73.4417Z" fill="#263238"/>
<path d="M287.765 83.1185H285.863V96.5545C285.863 97.0703 286.282 97.4891 286.797 97.4891H286.831C287.347 97.4891 287.765 97.0703 287.765 96.5545V83.1185Z" fill="#263238"/>
<path d="M268.19 107.825L275.737 119.675L283.916 97.6276L289.319 98.8753C289.319 98.8753 286.762 126.157 282.51 130.375C279.383 133.477 274.825 133.707 271.565 131.14C268.354 128.612 257.687 115.252 257.687 115.252L268.19 107.825Z" fill="#B97964"/>
<path d="M289.282 99.9183C289.282 99.9183 291.825 91.5436 291.94 90.6217C292.054 89.6998 285.589 84.8397 284.5 84.3412C283.412 83.8427 282.958 85.584 283.378 86.1362C283.378 86.1362 283.315 86.1786 283.215 86.254C282.086 87.0976 281.937 88.736 282.879 89.7842C282.879 89.7842 282.574 89.8954 282.319 90.5656C281.837 91.8333 283.095 93.1892 283.095 93.1892C283.095 93.1892 282.048 98.2117 283.272 98.8701C284.56 99.5632 285.608 100.083 285.629 99.9417L289.282 99.9183Z" fill="#B97964"/>
<path d="M287.353 95.5864L285.619 94.2925V97.2631C285.619 97.8409 286.007 98.3094 286.486 98.3094C286.965 98.3094 287.353 97.8409 287.353 97.2631V95.5864Z" fill="#263238"/>
<path d="M238.738 305.684L237.563 318.006L228.296 319.02L227.356 305.769L238.738 305.684Z" fill="#B97964"/>
<path d="M239.571 316.039C239.59 315.553 239.166 315.167 238.689 315.185L235.872 315.294C235.16 315.304 234.434 316.628 234.021 317.22C232.241 319.772 230.865 318.836 228.859 316.488C227.603 316.356 227.285 317.829 227.188 318.225L224.952 326.982C224.758 327.713 225.182 328.467 225.899 328.665C226.026 328.7 226.158 328.716 226.29 328.712C230.111 328.659 231.919 328.634 236.674 328.568L251.216 328.366C255.181 328.311 255.948 324.225 254.31 323.871C246.944 322.318 241.715 320.187 239.416 318.04C239.096 317.757 239.536 316.932 239.571 316.039Z" fill="#263238"/>
<path d="M238.281 320.761C238.358 320.761 238.432 320.722 238.475 320.651C239.013 319.753 239.944 319.123 240.964 318.966C241.087 318.948 241.171 318.832 241.152 318.709C241.133 318.586 241.018 318.5 240.895 318.52C239.744 318.696 238.694 319.406 238.087 320.418C238.023 320.526 238.058 320.665 238.165 320.729C238.201 320.75 238.241 320.761 238.281 320.761Z" fill="#FCFEFF"/>
<path d="M240.369 321.976C240.446 321.976 240.52 321.937 240.563 321.866C241.101 320.967 242.031 320.336 243.052 320.18C243.175 320.162 243.26 320.046 243.241 319.922C243.222 319.8 243.106 319.714 242.983 319.734C241.831 319.91 240.782 320.621 240.175 321.633C240.111 321.741 240.146 321.879 240.253 321.944C240.289 321.965 240.329 321.976 240.369 321.976Z" fill="#FCFEFF"/>
<path d="M242.939 323.199C243.016 323.199 243.091 323.16 243.133 323.089C243.671 322.19 244.602 321.56 245.622 321.404C245.745 321.386 245.83 321.27 245.811 321.147C245.792 321.024 245.673 320.942 245.554 320.958C244.402 321.133 243.352 321.843 242.746 322.856C242.681 322.964 242.716 323.103 242.823 323.167C242.859 323.188 242.9 323.199 242.939 323.199Z" fill="#FCFEFF"/>
<path d="M163.452 286.473L153.48 293.621L146.562 287.292L155.856 277.905L163.452 286.473Z" fill="#B97964"/>
<path d="M156.375 293.94C156.751 293.637 156.765 293.058 156.442 292.702L154.533 290.602C154.064 290.06 152.603 290.366 151.893 290.435C148.831 290.731 148.638 289.058 149.092 285.978C148.375 284.924 147.068 285.642 146.709 285.826L138.714 289.827C138.041 290.155 137.753 290.974 138.07 291.657C138.126 291.778 138.2 291.89 138.289 291.99C140.807 294.899 141.998 296.276 145.133 299.897L154.718 310.972C157.331 313.991 160.882 311.911 160.084 310.418C156.467 303.726 154.667 298.304 154.78 295.129C154.783 294.697 155.686 294.496 156.375 293.94Z" fill="#263238"/>
<path d="M155.113 296.923C155.176 296.923 155.238 296.897 155.283 296.846C155.366 296.753 155.356 296.61 155.262 296.528C154.382 295.755 153.169 295.408 152.018 295.605C151.895 295.625 151.812 295.742 151.833 295.866C151.853 295.988 151.963 296.074 152.094 296.05C153.109 295.882 154.185 296.183 154.964 296.866C155.007 296.904 155.06 296.923 155.113 296.923Z" fill="#FCFEFF"/>
<path d="M155.561 299.326C155.623 299.326 155.686 299.3 155.73 299.249C155.813 299.155 155.803 299.012 155.71 298.93C154.829 298.158 153.617 297.812 152.465 298.008C152.342 298.028 152.259 298.145 152.281 298.268C152.301 298.391 152.412 298.48 152.541 298.453C153.559 298.286 154.633 298.587 155.411 299.269C155.455 299.307 155.508 299.326 155.561 299.326Z" fill="#FCFEFF"/>
<path d="M156.314 302.106C156.376 302.106 156.439 302.081 156.483 302.029C156.566 301.936 156.556 301.793 156.463 301.711C155.584 300.938 154.37 300.591 153.218 300.788C153.095 300.809 153.012 300.925 153.034 301.049C153.054 301.171 153.163 301.257 153.294 301.233C154.312 301.065 155.386 301.366 156.164 302.05C156.208 302.088 156.261 302.106 156.314 302.106Z" fill="#FCFEFF"/>
<path d="M250.748 163.062C250.748 163.062 243.362 257.34 243.302 257.866L238.682 313.047H226.687C226.687 313.047 226.606 309.87 225.981 305.684C220.509 268.994 226.121 257.138 226.121 257.138C226.121 257.138 221.303 186.305 219.617 180.967C219.449 180.411 225.189 139.819 250.748 163.062Z" fill="#263238"/>
<path d="M250.931 162.946L250.599 163.497C245.656 170.187 236.288 177.31 231.394 183.421L229.69 187.276C229.69 187.276 194.048 159.646 217.214 148.259C218.177 147.786 225.269 143.994 225.269 143.994C231.405 142.488 250.931 162.946 250.931 162.946Z" fill="#263238"/>
<path d="M197.671 187.366C195.731 199.435 189.704 230.609 186.292 242.337C186.292 242.337 175.79 248.347 169.852 255.07L150.9 281.754L159.356 289.345L193.921 264.06C201.736 258.176 204.902 253.815 207.968 248.076C215.468 234.062 219.171 216.213 223.648 202.108C225.72 195.568 233.685 174.498 233.006 167.723C232.101 158.554 231.777 143.725 220.636 148.768C209.977 151.899 203.657 153.89 197.671 187.366Z" fill="#263238"/>
<path opacity="0.2" d="M224.178 205.269L232.943 172.889L242.939 169.555L235.136 176.83L224.178 205.269Z" fill="#08101A"/>
<path d="M264.099 102.799C267.341 105.484 273.076 114.654 273.076 114.654L260.166 121.969C260.166 121.969 253.567 112.364 254.244 108.094C254.95 103.644 259.217 100.658 264.099 102.799Z" fill="#263238"/>
<path opacity="0.5" d="M264.099 102.799C267.341 105.484 273.076 114.654 273.076 114.654L260.166 121.969C260.166 121.969 253.567 112.364 254.244 108.094C254.95 103.644 259.217 100.658 264.099 102.799Z" fill="#FCFEFF"/>
<path opacity="0.3" d="M264.792 119.081V109.897C264.792 109.897 268.549 120.861 267.687 122.832C266.824 124.803 266.48 125.829 266.48 125.829L265.035 124.155L264.792 119.081Z" fill="#08101A"/>
<path d="M217.536 142.598C220.312 139.415 222.126 135.509 222.768 131.334C223.748 124.968 225.085 116.072 224.935 115.374L224.499 98.2082C228.293 94.4141 242.378 94.3754 242.378 94.3754L251.827 96.7847C251.827 96.7847 255.336 98.3291 258.276 99.9749C262.202 102.172 264.266 102.288 264.806 104.814C264.806 104.814 265.578 113.089 265.789 121.476C265.865 124.469 251.972 151.979 251.796 157.16L251.793 165.596C231.656 175.739 210.502 150.661 210.502 150.661L217.536 142.598Z" fill="#263238"/>
<path opacity="0.5" d="M217.536 142.598C220.312 139.415 222.126 135.509 222.768 131.334C223.748 124.968 225.085 116.072 224.935 115.374L224.499 98.2082C228.293 94.4141 242.378 94.3754 242.378 94.3754L251.827 96.7847C251.827 96.7847 255.336 98.3291 258.276 99.9749C262.202 102.172 264.266 102.288 264.806 104.814C264.806 104.814 265.578 113.089 265.789 121.476C265.865 124.469 251.972 151.979 251.796 157.16L251.793 165.596C231.656 175.739 210.502 150.661 210.502 150.661L217.536 142.598Z" fill="#FCFEFF"/>
<path opacity="0.3" d="M224.158 122.057C224.158 122.057 232.985 114.086 232.538 110.356L225.031 114.389L224.529 119.44L224.158 122.057Z" fill="#08101A"/>
<path d="M217.686 105.7C217.481 106.003 204.698 120.394 199.56 125.841C198.458 127.01 197.606 128.387 197.051 129.894L186.511 159.353L193.112 161.327L208.265 132.834L227.308 116.723L217.686 105.7Z" fill="#B97964"/>
<path d="M193.361 158.963C193.361 158.963 195.124 160.978 194.952 163.185C194.779 165.392 195.229 167.201 194.987 168.833C194.745 170.465 193.552 168.585 193.12 167.456C192.687 166.328 192.186 165.053 191.391 165.514C190.595 165.976 186.637 172.824 185.462 173.339C184.287 173.854 184.58 172.546 184.58 172.546C184.58 172.546 183.574 174.183 182.817 173.961C182.62 173.904 182.257 173.451 182.598 172.633C183.366 170.793 185.178 167.013 185.178 167.013C185.078 167.232 182.509 171.737 182.037 172.362C181.419 173.178 180.711 173.248 180.249 172.874C179.592 172.342 182.587 166.648 182.546 166.32C182.546 166.32 180.931 169.655 179.842 169.71C178.753 169.764 179.655 167.609 180.811 165.859C181.871 164.256 183.53 160.832 184.765 159.307C186.288 157.427 187.732 156.506 189.928 157.077C192.123 157.648 193.361 158.963 193.361 158.963Z" fill="#B97964"/>
<path d="M226.923 96.9152C222.641 97.1898 214.869 107.896 214.869 107.896L224.932 119.27C224.932 119.27 234.373 111.03 234.534 105.514C234.659 100.853 232.361 96.5575 226.923 96.9152Z" fill="#263238"/>
<path opacity="0.5" d="M226.923 96.9152C222.641 97.1898 214.869 107.896 214.869 107.896L224.932 119.27C224.932 119.27 234.373 111.03 234.534 105.514C234.659 100.853 232.361 96.5575 226.923 96.9152Z" fill="#FCFEFF"/>
<path d="M257.84 55.9942C263.717 58.4217 266.254 63.0798 266.963 66.6759C267.373 71.64 266.444 75.3956 266.161 80.3552L247.265 54.5657C250.377 54.57 251.587 53.6892 257.84 55.9942Z" fill="#263238"/>
<path d="M250.896 54.7602C245.388 53.4127 241.076 57.1421 238.629 59.6251C236.075 62.9143 235.071 67.167 235.868 71.3108C236.703 75.1674 237.714 79.8422 240.475 81.3921C242.031 82.2983 243.883 82.5155 245.578 81.991L260.754 60.6335C258.004 57.8785 254.611 55.8569 250.896 54.7602Z" fill="#263238"/>
<path d="M243.546 86.5688C243.547 86.4212 243.559 86.2739 243.581 86.1283C243.67 85.4635 243.961 84.8465 244.413 84.3613C245.612 83.0014 247.688 82.9003 249.049 84.1357L249.052 84.139L254.304 86.474C254.31 86.5515 254.316 86.6294 254.322 86.7167L253.372 94.4492C253.224 96.75 255.826 98.6418 257.286 99.6556C258.163 100.334 259.91 106.621 254.057 111.276C252.332 112.658 249.665 110.403 247.933 108.9C240.803 102.035 240.954 95.7049 240.954 95.7049C243.595 93.2924 243.778 91.6749 243.546 86.5688Z" fill="#B97964"/>
<path opacity="0.2" d="M256.229 86.0212C256.184 85.9493 256.15 85.871 256.129 85.7887L250.434 85.2625C248.734 84.566 246.818 85.3647 246.148 87.0495C245.887 87.5164 245.227 84.2149 245.916 88.5294L245.927 88.5969L253.45 93.8869C253.45 93.8869 254.365 87.6097 254.409 87.5897C254.451 87.5697 256.229 86.0212 256.229 86.0212Z" fill="#08101A"/>
<path d="M238.955 71.8765C241.083 80.7539 241.785 84.5414 247.049 88.5488C254.971 94.5638 265.183 90.5193 265.738 81.285C266.172 72.9836 262.669 59.8787 253.417 57.4429C244.165 55.007 236.831 62.9872 238.955 71.8765Z" fill="#B97964"/>
<path d="M236.677 80.2912C237.991 82.0385 239.884 83.017 241.533 83.2415C244.013 83.5792 244.749 79.5697 243.616 77.2476C242.596 75.1574 240.05 73.9812 237.774 74.714C235.533 75.4361 235.175 78.2935 236.677 80.2912Z" fill="#B97964"/>
<path opacity="0.2" d="M241.688 79.4697C241.702 79.4697 241.717 79.4684 241.732 79.4653C241.854 79.441 241.934 79.3223 241.91 79.1996C241.728 78.2829 241.181 77.451 240.408 76.9174C239.635 76.3829 238.669 76.1675 237.751 76.3308C237.629 76.3525 237.547 76.4694 237.568 76.5925C237.59 76.7157 237.709 76.7991 237.83 76.7757C238.627 76.6367 239.475 76.822 240.151 77.289C240.828 77.7564 241.307 78.485 241.467 79.2878C241.488 79.3951 241.582 79.4697 241.688 79.4697Z" fill="#08101A"/>
<path d="M251.347 73.4268C251.517 74.3848 252.14 75.1174 252.738 75.0636C253.336 75.0098 253.683 74.19 253.513 73.2323C253.344 72.2748 252.721 71.5418 252.123 71.5957C251.525 71.6494 251.178 72.4691 251.347 73.4268Z" fill="#263238"/>
<path d="M260.289 72.4078C260.456 73.3355 261.074 74.0443 261.671 73.9909C262.267 73.9372 262.615 73.1419 262.449 72.2137C262.283 71.2861 261.664 70.5771 261.068 70.6309C260.472 70.6841 260.123 71.4798 260.289 72.4078Z" fill="#263238"/>
<path d="M249.018 70.2838C249.136 70.2839 249.249 70.2372 249.328 70.1443C250.556 68.6915 252.189 68.9727 252.208 68.976C252.45 69.0181 252.669 68.8598 252.691 68.6152C252.713 68.3709 252.532 68.1368 252.287 68.0912C252.201 68.0762 250.152 67.7212 248.627 69.5247C248.476 69.7044 248.509 69.9892 248.702 70.1604C248.795 70.2426 248.909 70.2837 249.018 70.2838Z" fill="#263238"/>
<path d="M262.705 67.5082C262.792 67.4673 262.859 67.3907 262.886 67.2864C262.942 67.071 262.807 66.8207 262.585 66.727C260.36 65.7879 258.938 66.847 258.879 66.8936C258.711 67.0226 258.7 67.2857 258.856 67.4819C259.011 67.6776 259.273 67.7318 259.441 67.604C259.497 67.5617 260.613 66.759 262.382 67.5062C262.497 67.5543 262.612 67.5515 262.705 67.5082Z" fill="#263238"/>
<path d="M257.798 72.234C257.798 72.234 259.66 75.4824 261.537 77.4278C261.865 77.7678 261.762 78.3287 261.348 78.5376C260.282 79.0753 258.922 78.8465 258.922 78.8465L257.798 72.234Z" fill="#A24E3F"/>
<path d="M251.787 71.6732L253.804 70.9491C253.804 70.9491 252.868 72.6326 251.787 71.6732Z" fill="#263238"/>
<path d="M260.857 70.676L262.874 69.9518C262.874 69.9518 261.938 71.6352 260.857 70.676Z" fill="#263238"/>
<path d="M258.872 81.4095C258.316 82.3844 257.689 84.2546 257.689 84.2546C257.509 84.2252 257.328 84.1956 257.149 84.1567C254.707 83.6947 253.711 82.6759 253.348 81.6866C253.151 81.1449 253.15 80.6064 253.205 80.1781C253.264 79.682 253.42 79.3441 253.42 79.3441C254.583 80.36 256.83 80.9656 258.042 81.2388C258.549 81.3587 258.872 81.4095 258.872 81.4095Z" fill="#263238"/>
<path d="M258.042 81.2388L257.671 82.0683C255.373 81.6276 253.807 81.0097 253.205 80.1781C253.264 79.682 253.42 79.3441 253.42 79.3441C254.583 80.36 256.83 80.9656 258.042 81.2388Z" fill="#FCFEFF"/>
<path d="M257.149 84.1567C254.707 83.6947 253.711 82.6759 253.348 81.6866C254.175 81.876 255.152 82.1962 255.968 82.7355C256.594 83.1455 256.943 83.6618 257.149 84.1567Z" fill="#DE5753"/>
<path d="M242.498 73.4418C242.498 73.4418 246.31 66.6182 245.39 61.6085C245.39 61.6085 262.655 53.9748 264.386 70.0365C264.386 70.0365 265.364 55.657 250.062 56.3694C234.761 57.0819 235.91 77.1344 244.094 82.5833C244.105 82.5081 240.15 77.7089 242.498 73.4418Z" fill="#263238"/>
<path d="M257.222 56.9833C259.58 58.4781 261.415 60.6762 262.462 63.259C262.881 65.1989 260.556 67.1216 260.556 67.1216L256.43 63.5263L257.234 67.2427C251.851 67.7035 248.205 65.5004 245.529 61.8079L247.323 55.9686C247.323 55.9686 255.149 55.8094 257.222 56.9833Z" fill="#263238"/>
<path d="M199.264 71.3395C200.43 72.4515 202.03 72.979 203.551 72.7532C202.244 71.3696 201.698 69.1596 202.184 67.2264C207.266 69.2421 213.328 71.7588 218.194 69.1685C220.425 67.9814 221.863 65.4276 223.646 63.522C225.43 61.6165 227.374 59.7396 229.753 58.9887C232.131 58.2378 237.291 60.1919 238.586 62.5362L238.897 67.1497C236.441 66.6827 232.575 68.472 231.494 70.9714C230.413 73.4708 229.454 75.2781 228.107 77.6123C226.402 80.5679 224.724 82.4342 221.829 83.7253C220.507 84.3149 217.507 84.9596 213.051 84.672C209.518 84.4439 205.888 83.6759 202.951 81.4833C200.014 79.2909 198.027 75.0268 199.264 71.3395Z" fill="#263238"/>
</svg>
